M48
; DRILL file {KiCad 9.0.6} date 2026-08-08T23:25:55-0400
; FORMAT={-:-/ absolute / metric / decimal}
; #@! TF.CreationDate,2026-08-08T23:25:55-04:00
; #@! TF.GenerationSoftware,Kicad,Pcbnew,9.0.6
; #@! TF.FileFunction,Plated,1,4,PTH
FMAT,2
METRIC
; #@! TA.AperFunction,Plated,PTH,ViaDrill
T1C0.300
; #@! TA.AperFunction,Plated,PTH,ComponentDrill
T2C0.800
; #@! TA.AperFunction,Plated,PTH,ComponentDrill
T3C1.000
; #@! TA.AperFunction,Plated,PTH,ComponentDrill
T4C1.500
; #@! TA.AperFunction,Plated,PTH,ComponentDrill
T5C1.549
%
G90
G05
T1
X97.87Y-60.69
X99.01Y-49.47
X99.08Y-47.97
X102.43Y-45.33
X103.53Y-36.88
X111.24Y-46.47
T2
X86.37Y-46.73
X86.39Y-50.29
X86.47Y-53.52
X93.99Y-46.73
X94.01Y-50.29
X94.09Y-53.52
X102.77Y-31.19
X110.39Y-31.19
X121.94Y-31.05
X129.56Y-31.05
T3
X64.77Y-33.35
X64.77Y-35.89
X64.77Y-38.43
X64.77Y-40.97
X64.77Y-43.51
X64.77Y-46.05
X64.77Y-48.59
X80.02Y-33.35
X80.02Y-35.89
X80.02Y-38.43
X80.02Y-40.97
X80.02Y-43.51
X80.02Y-46.05
X80.02Y-48.59
X139.47Y-34.09
X139.47Y-48.59
X141.97Y-48.59
X144.47Y-34.09
X144.47Y-48.59
T5
X105.53Y-38.19
X105.54Y-54.41
X111.88Y-35.65
X111.89Y-51.87
X121.89Y-54.44
X121.9Y-38.2
X128.24Y-51.9
X128.25Y-35.66
T4
X136.37Y-41.74G85X136.37Y-40.44
G05
X147.57Y-41.74G85X147.57Y-40.44
G05
M30
