%TF.GenerationSoftware,KiCad,Pcbnew,9.0.6*%
%TF.CreationDate,2026-08-08T23:25:59-04:00*%
%TF.ProjectId,PCB_Related,5043425f-5265-46c6-9174-65642e6b6963,rev?*%
%TF.SameCoordinates,Original*%
%TF.FileFunction,Legend,Top*%
%TF.FilePolarity,Positive*%
%FSLAX46Y46*%
G04 Gerber Fmt 4.6, Leading zero omitted, Abs format (unit mm)*
G04 Created by KiCad (PCBNEW 9.0.6) date 2026-08-08 23:25:59*
%MOMM*%
%LPD*%
G01*
G04 APERTURE LIST*
%ADD10C,0.150000*%
%ADD11C,0.101600*%
%ADD12C,0.120000*%
%ADD13C,0.127000*%
%ADD14C,0.254000*%
%ADD15C,0.025400*%
G04 APERTURE END LIST*
D10*
X120116095Y-47755200D02*
X120258952Y-47802819D01*
X120258952Y-47802819D02*
X120497047Y-47802819D01*
X120497047Y-47802819D02*
X120592285Y-47755200D01*
X120592285Y-47755200D02*
X120639904Y-47707580D01*
X120639904Y-47707580D02*
X120687523Y-47612342D01*
X120687523Y-47612342D02*
X120687523Y-47517104D01*
X120687523Y-47517104D02*
X120639904Y-47421866D01*
X120639904Y-47421866D02*
X120592285Y-47374247D01*
X120592285Y-47374247D02*
X120497047Y-47326628D01*
X120497047Y-47326628D02*
X120306571Y-47279009D01*
X120306571Y-47279009D02*
X120211333Y-47231390D01*
X120211333Y-47231390D02*
X120163714Y-47183771D01*
X120163714Y-47183771D02*
X120116095Y-47088533D01*
X120116095Y-47088533D02*
X120116095Y-46993295D01*
X120116095Y-46993295D02*
X120163714Y-46898057D01*
X120163714Y-46898057D02*
X120211333Y-46850438D01*
X120211333Y-46850438D02*
X120306571Y-46802819D01*
X120306571Y-46802819D02*
X120544666Y-46802819D01*
X120544666Y-46802819D02*
X120687523Y-46850438D01*
X121544666Y-47136152D02*
X121544666Y-47802819D01*
X121306571Y-46755200D02*
X121068476Y-47469485D01*
X121068476Y-47469485D02*
X121687523Y-47469485D01*
X105841905Y-29524819D02*
X105841905Y-28524819D01*
X105841905Y-28524819D02*
X106080000Y-28524819D01*
X106080000Y-28524819D02*
X106222857Y-28572438D01*
X106222857Y-28572438D02*
X106318095Y-28667676D01*
X106318095Y-28667676D02*
X106365714Y-28762914D01*
X106365714Y-28762914D02*
X106413333Y-28953390D01*
X106413333Y-28953390D02*
X106413333Y-29096247D01*
X106413333Y-29096247D02*
X106365714Y-29286723D01*
X106365714Y-29286723D02*
X106318095Y-29381961D01*
X106318095Y-29381961D02*
X106222857Y-29477200D01*
X106222857Y-29477200D02*
X106080000Y-29524819D01*
X106080000Y-29524819D02*
X105841905Y-29524819D01*
X107365714Y-29524819D02*
X106794286Y-29524819D01*
X107080000Y-29524819D02*
X107080000Y-28524819D01*
X107080000Y-28524819D02*
X106984762Y-28667676D01*
X106984762Y-28667676D02*
X106889524Y-28762914D01*
X106889524Y-28762914D02*
X106794286Y-28810533D01*
X102508095Y-29844819D02*
X102508095Y-28844819D01*
X103079523Y-29844819D02*
X102650952Y-29273390D01*
X103079523Y-28844819D02*
X102508095Y-29416247D01*
X73378095Y-57454819D02*
X73378095Y-56454819D01*
X73378095Y-56931009D02*
X73949523Y-56931009D01*
X73949523Y-57454819D02*
X73949523Y-56454819D01*
X74330476Y-56454819D02*
X74949523Y-56454819D01*
X74949523Y-56454819D02*
X74616190Y-56835771D01*
X74616190Y-56835771D02*
X74759047Y-56835771D01*
X74759047Y-56835771D02*
X74854285Y-56883390D01*
X74854285Y-56883390D02*
X74901904Y-56931009D01*
X74901904Y-56931009D02*
X74949523Y-57026247D01*
X74949523Y-57026247D02*
X74949523Y-57264342D01*
X74949523Y-57264342D02*
X74901904Y-57359580D01*
X74901904Y-57359580D02*
X74854285Y-57407200D01*
X74854285Y-57407200D02*
X74759047Y-57454819D01*
X74759047Y-57454819D02*
X74473333Y-57454819D01*
X74473333Y-57454819D02*
X74378095Y-57407200D01*
X74378095Y-57407200D02*
X74330476Y-57359580D01*
X125011905Y-29384819D02*
X125011905Y-28384819D01*
X125011905Y-28384819D02*
X125250000Y-28384819D01*
X125250000Y-28384819D02*
X125392857Y-28432438D01*
X125392857Y-28432438D02*
X125488095Y-28527676D01*
X125488095Y-28527676D02*
X125535714Y-28622914D01*
X125535714Y-28622914D02*
X125583333Y-28813390D01*
X125583333Y-28813390D02*
X125583333Y-28956247D01*
X125583333Y-28956247D02*
X125535714Y-29146723D01*
X125535714Y-29146723D02*
X125488095Y-29241961D01*
X125488095Y-29241961D02*
X125392857Y-29337200D01*
X125392857Y-29337200D02*
X125250000Y-29384819D01*
X125250000Y-29384819D02*
X125011905Y-29384819D01*
X126488095Y-28384819D02*
X126011905Y-28384819D01*
X126011905Y-28384819D02*
X125964286Y-28861009D01*
X125964286Y-28861009D02*
X126011905Y-28813390D01*
X126011905Y-28813390D02*
X126107143Y-28765771D01*
X126107143Y-28765771D02*
X126345238Y-28765771D01*
X126345238Y-28765771D02*
X126440476Y-28813390D01*
X126440476Y-28813390D02*
X126488095Y-28861009D01*
X126488095Y-28861009D02*
X126535714Y-28956247D01*
X126535714Y-28956247D02*
X126535714Y-29194342D01*
X126535714Y-29194342D02*
X126488095Y-29289580D01*
X126488095Y-29289580D02*
X126440476Y-29337200D01*
X126440476Y-29337200D02*
X126345238Y-29384819D01*
X126345238Y-29384819D02*
X126107143Y-29384819D01*
X126107143Y-29384819D02*
X126011905Y-29337200D01*
X126011905Y-29337200D02*
X125964286Y-29289580D01*
X121678095Y-29704819D02*
X121678095Y-28704819D01*
X122249523Y-29704819D02*
X121820952Y-29133390D01*
X122249523Y-28704819D02*
X121678095Y-29276247D01*
D11*
X71717666Y-43026985D02*
X71717666Y-43746652D01*
X71717666Y-43746652D02*
X71760000Y-43831318D01*
X71760000Y-43831318D02*
X71802333Y-43873652D01*
X71802333Y-43873652D02*
X71887000Y-43915985D01*
X71887000Y-43915985D02*
X72056333Y-43915985D01*
X72056333Y-43915985D02*
X72141000Y-43873652D01*
X72141000Y-43873652D02*
X72183333Y-43831318D01*
X72183333Y-43831318D02*
X72225666Y-43746652D01*
X72225666Y-43746652D02*
X72225666Y-43026985D01*
X73029999Y-43323318D02*
X73029999Y-43915985D01*
X72818333Y-42984652D02*
X72606666Y-43619652D01*
X72606666Y-43619652D02*
X73156999Y-43619652D01*
D10*
X67633095Y-39877200D02*
X67775952Y-39924819D01*
X67775952Y-39924819D02*
X68014047Y-39924819D01*
X68014047Y-39924819D02*
X68109285Y-39877200D01*
X68109285Y-39877200D02*
X68156904Y-39829580D01*
X68156904Y-39829580D02*
X68204523Y-39734342D01*
X68204523Y-39734342D02*
X68204523Y-39639104D01*
X68204523Y-39639104D02*
X68156904Y-39543866D01*
X68156904Y-39543866D02*
X68109285Y-39496247D01*
X68109285Y-39496247D02*
X68014047Y-39448628D01*
X68014047Y-39448628D02*
X67823571Y-39401009D01*
X67823571Y-39401009D02*
X67728333Y-39353390D01*
X67728333Y-39353390D02*
X67680714Y-39305771D01*
X67680714Y-39305771D02*
X67633095Y-39210533D01*
X67633095Y-39210533D02*
X67633095Y-39115295D01*
X67633095Y-39115295D02*
X67680714Y-39020057D01*
X67680714Y-39020057D02*
X67728333Y-38972438D01*
X67728333Y-38972438D02*
X67823571Y-38924819D01*
X67823571Y-38924819D02*
X68061666Y-38924819D01*
X68061666Y-38924819D02*
X68204523Y-38972438D01*
X69014047Y-39877200D02*
X68918809Y-39924819D01*
X68918809Y-39924819D02*
X68728333Y-39924819D01*
X68728333Y-39924819D02*
X68633095Y-39877200D01*
X68633095Y-39877200D02*
X68585476Y-39781961D01*
X68585476Y-39781961D02*
X68585476Y-39401009D01*
X68585476Y-39401009D02*
X68633095Y-39305771D01*
X68633095Y-39305771D02*
X68728333Y-39258152D01*
X68728333Y-39258152D02*
X68918809Y-39258152D01*
X68918809Y-39258152D02*
X69014047Y-39305771D01*
X69014047Y-39305771D02*
X69061666Y-39401009D01*
X69061666Y-39401009D02*
X69061666Y-39496247D01*
X69061666Y-39496247D02*
X68585476Y-39591485D01*
X69871190Y-39877200D02*
X69775952Y-39924819D01*
X69775952Y-39924819D02*
X69585476Y-39924819D01*
X69585476Y-39924819D02*
X69490238Y-39877200D01*
X69490238Y-39877200D02*
X69442619Y-39781961D01*
X69442619Y-39781961D02*
X69442619Y-39401009D01*
X69442619Y-39401009D02*
X69490238Y-39305771D01*
X69490238Y-39305771D02*
X69585476Y-39258152D01*
X69585476Y-39258152D02*
X69775952Y-39258152D01*
X69775952Y-39258152D02*
X69871190Y-39305771D01*
X69871190Y-39305771D02*
X69918809Y-39401009D01*
X69918809Y-39401009D02*
X69918809Y-39496247D01*
X69918809Y-39496247D02*
X69442619Y-39591485D01*
X70728333Y-39877200D02*
X70633095Y-39924819D01*
X70633095Y-39924819D02*
X70442619Y-39924819D01*
X70442619Y-39924819D02*
X70347381Y-39877200D01*
X70347381Y-39877200D02*
X70299762Y-39781961D01*
X70299762Y-39781961D02*
X70299762Y-39401009D01*
X70299762Y-39401009D02*
X70347381Y-39305771D01*
X70347381Y-39305771D02*
X70442619Y-39258152D01*
X70442619Y-39258152D02*
X70633095Y-39258152D01*
X70633095Y-39258152D02*
X70728333Y-39305771D01*
X70728333Y-39305771D02*
X70775952Y-39401009D01*
X70775952Y-39401009D02*
X70775952Y-39496247D01*
X70775952Y-39496247D02*
X70299762Y-39591485D01*
X71633095Y-39924819D02*
X71633095Y-38924819D01*
X71633095Y-39877200D02*
X71537857Y-39924819D01*
X71537857Y-39924819D02*
X71347381Y-39924819D01*
X71347381Y-39924819D02*
X71252143Y-39877200D01*
X71252143Y-39877200D02*
X71204524Y-39829580D01*
X71204524Y-39829580D02*
X71156905Y-39734342D01*
X71156905Y-39734342D02*
X71156905Y-39448628D01*
X71156905Y-39448628D02*
X71204524Y-39353390D01*
X71204524Y-39353390D02*
X71252143Y-39305771D01*
X71252143Y-39305771D02*
X71347381Y-39258152D01*
X71347381Y-39258152D02*
X71537857Y-39258152D01*
X71537857Y-39258152D02*
X71633095Y-39305771D01*
X72823572Y-39877200D02*
X72966429Y-39924819D01*
X72966429Y-39924819D02*
X73204524Y-39924819D01*
X73204524Y-39924819D02*
X73299762Y-39877200D01*
X73299762Y-39877200D02*
X73347381Y-39829580D01*
X73347381Y-39829580D02*
X73395000Y-39734342D01*
X73395000Y-39734342D02*
X73395000Y-39639104D01*
X73395000Y-39639104D02*
X73347381Y-39543866D01*
X73347381Y-39543866D02*
X73299762Y-39496247D01*
X73299762Y-39496247D02*
X73204524Y-39448628D01*
X73204524Y-39448628D02*
X73014048Y-39401009D01*
X73014048Y-39401009D02*
X72918810Y-39353390D01*
X72918810Y-39353390D02*
X72871191Y-39305771D01*
X72871191Y-39305771D02*
X72823572Y-39210533D01*
X72823572Y-39210533D02*
X72823572Y-39115295D01*
X72823572Y-39115295D02*
X72871191Y-39020057D01*
X72871191Y-39020057D02*
X72918810Y-38972438D01*
X72918810Y-38972438D02*
X73014048Y-38924819D01*
X73014048Y-38924819D02*
X73252143Y-38924819D01*
X73252143Y-38924819D02*
X73395000Y-38972438D01*
X73680715Y-39258152D02*
X74061667Y-39258152D01*
X73823572Y-38924819D02*
X73823572Y-39781961D01*
X73823572Y-39781961D02*
X73871191Y-39877200D01*
X73871191Y-39877200D02*
X73966429Y-39924819D01*
X73966429Y-39924819D02*
X74061667Y-39924819D01*
X74823572Y-39258152D02*
X74823572Y-39924819D01*
X74395001Y-39258152D02*
X74395001Y-39781961D01*
X74395001Y-39781961D02*
X74442620Y-39877200D01*
X74442620Y-39877200D02*
X74537858Y-39924819D01*
X74537858Y-39924819D02*
X74680715Y-39924819D01*
X74680715Y-39924819D02*
X74775953Y-39877200D01*
X74775953Y-39877200D02*
X74823572Y-39829580D01*
X75728334Y-39924819D02*
X75728334Y-38924819D01*
X75728334Y-39877200D02*
X75633096Y-39924819D01*
X75633096Y-39924819D02*
X75442620Y-39924819D01*
X75442620Y-39924819D02*
X75347382Y-39877200D01*
X75347382Y-39877200D02*
X75299763Y-39829580D01*
X75299763Y-39829580D02*
X75252144Y-39734342D01*
X75252144Y-39734342D02*
X75252144Y-39448628D01*
X75252144Y-39448628D02*
X75299763Y-39353390D01*
X75299763Y-39353390D02*
X75347382Y-39305771D01*
X75347382Y-39305771D02*
X75442620Y-39258152D01*
X75442620Y-39258152D02*
X75633096Y-39258152D01*
X75633096Y-39258152D02*
X75728334Y-39305771D01*
X76204525Y-39924819D02*
X76204525Y-39258152D01*
X76204525Y-38924819D02*
X76156906Y-38972438D01*
X76156906Y-38972438D02*
X76204525Y-39020057D01*
X76204525Y-39020057D02*
X76252144Y-38972438D01*
X76252144Y-38972438D02*
X76204525Y-38924819D01*
X76204525Y-38924819D02*
X76204525Y-39020057D01*
X76823572Y-39924819D02*
X76728334Y-39877200D01*
X76728334Y-39877200D02*
X76680715Y-39829580D01*
X76680715Y-39829580D02*
X76633096Y-39734342D01*
X76633096Y-39734342D02*
X76633096Y-39448628D01*
X76633096Y-39448628D02*
X76680715Y-39353390D01*
X76680715Y-39353390D02*
X76728334Y-39305771D01*
X76728334Y-39305771D02*
X76823572Y-39258152D01*
X76823572Y-39258152D02*
X76966429Y-39258152D01*
X76966429Y-39258152D02*
X77061667Y-39305771D01*
X77061667Y-39305771D02*
X77109286Y-39353390D01*
X77109286Y-39353390D02*
X77156905Y-39448628D01*
X77156905Y-39448628D02*
X77156905Y-39734342D01*
X77156905Y-39734342D02*
X77109286Y-39829580D01*
X77109286Y-39829580D02*
X77061667Y-39877200D01*
X77061667Y-39877200D02*
X76966429Y-39924819D01*
X76966429Y-39924819D02*
X76823572Y-39924819D01*
X70871191Y-40924819D02*
X71537857Y-41924819D01*
X71537857Y-40924819D02*
X70871191Y-41924819D01*
X71918810Y-41924819D02*
X71918810Y-40924819D01*
X72347381Y-41639104D02*
X72823571Y-41639104D01*
X72252143Y-41924819D02*
X72585476Y-40924819D01*
X72585476Y-40924819D02*
X72918809Y-41924819D01*
X73442619Y-40924819D02*
X73633095Y-40924819D01*
X73633095Y-40924819D02*
X73728333Y-40972438D01*
X73728333Y-40972438D02*
X73823571Y-41067676D01*
X73823571Y-41067676D02*
X73871190Y-41258152D01*
X73871190Y-41258152D02*
X73871190Y-41591485D01*
X73871190Y-41591485D02*
X73823571Y-41781961D01*
X73823571Y-41781961D02*
X73728333Y-41877200D01*
X73728333Y-41877200D02*
X73633095Y-41924819D01*
X73633095Y-41924819D02*
X73442619Y-41924819D01*
X73442619Y-41924819D02*
X73347381Y-41877200D01*
X73347381Y-41877200D02*
X73252143Y-41781961D01*
X73252143Y-41781961D02*
X73204524Y-41591485D01*
X73204524Y-41591485D02*
X73204524Y-41258152D01*
X73204524Y-41258152D02*
X73252143Y-41067676D01*
X73252143Y-41067676D02*
X73347381Y-40972438D01*
X73347381Y-40972438D02*
X73442619Y-40924819D01*
X88135357Y-59647638D02*
X88135357Y-58147638D01*
X88135357Y-58147638D02*
X88492500Y-58147638D01*
X88492500Y-58147638D02*
X88706786Y-58219067D01*
X88706786Y-58219067D02*
X88849643Y-58361924D01*
X88849643Y-58361924D02*
X88921072Y-58504781D01*
X88921072Y-58504781D02*
X88992500Y-58790495D01*
X88992500Y-58790495D02*
X88992500Y-59004781D01*
X88992500Y-59004781D02*
X88921072Y-59290495D01*
X88921072Y-59290495D02*
X88849643Y-59433352D01*
X88849643Y-59433352D02*
X88706786Y-59576210D01*
X88706786Y-59576210D02*
X88492500Y-59647638D01*
X88492500Y-59647638D02*
X88135357Y-59647638D01*
X89849643Y-58790495D02*
X89706786Y-58719067D01*
X89706786Y-58719067D02*
X89635357Y-58647638D01*
X89635357Y-58647638D02*
X89563929Y-58504781D01*
X89563929Y-58504781D02*
X89563929Y-58433352D01*
X89563929Y-58433352D02*
X89635357Y-58290495D01*
X89635357Y-58290495D02*
X89706786Y-58219067D01*
X89706786Y-58219067D02*
X89849643Y-58147638D01*
X89849643Y-58147638D02*
X90135357Y-58147638D01*
X90135357Y-58147638D02*
X90278215Y-58219067D01*
X90278215Y-58219067D02*
X90349643Y-58290495D01*
X90349643Y-58290495D02*
X90421072Y-58433352D01*
X90421072Y-58433352D02*
X90421072Y-58504781D01*
X90421072Y-58504781D02*
X90349643Y-58647638D01*
X90349643Y-58647638D02*
X90278215Y-58719067D01*
X90278215Y-58719067D02*
X90135357Y-58790495D01*
X90135357Y-58790495D02*
X89849643Y-58790495D01*
X89849643Y-58790495D02*
X89706786Y-58861924D01*
X89706786Y-58861924D02*
X89635357Y-58933352D01*
X89635357Y-58933352D02*
X89563929Y-59076210D01*
X89563929Y-59076210D02*
X89563929Y-59361924D01*
X89563929Y-59361924D02*
X89635357Y-59504781D01*
X89635357Y-59504781D02*
X89706786Y-59576210D01*
X89706786Y-59576210D02*
X89849643Y-59647638D01*
X89849643Y-59647638D02*
X90135357Y-59647638D01*
X90135357Y-59647638D02*
X90278215Y-59576210D01*
X90278215Y-59576210D02*
X90349643Y-59504781D01*
X90349643Y-59504781D02*
X90421072Y-59361924D01*
X90421072Y-59361924D02*
X90421072Y-59076210D01*
X90421072Y-59076210D02*
X90349643Y-58933352D01*
X90349643Y-58933352D02*
X90278215Y-58861924D01*
X90278215Y-58861924D02*
X90135357Y-58790495D01*
X103766095Y-47725200D02*
X103908952Y-47772819D01*
X103908952Y-47772819D02*
X104147047Y-47772819D01*
X104147047Y-47772819D02*
X104242285Y-47725200D01*
X104242285Y-47725200D02*
X104289904Y-47677580D01*
X104289904Y-47677580D02*
X104337523Y-47582342D01*
X104337523Y-47582342D02*
X104337523Y-47487104D01*
X104337523Y-47487104D02*
X104289904Y-47391866D01*
X104289904Y-47391866D02*
X104242285Y-47344247D01*
X104242285Y-47344247D02*
X104147047Y-47296628D01*
X104147047Y-47296628D02*
X103956571Y-47249009D01*
X103956571Y-47249009D02*
X103861333Y-47201390D01*
X103861333Y-47201390D02*
X103813714Y-47153771D01*
X103813714Y-47153771D02*
X103766095Y-47058533D01*
X103766095Y-47058533D02*
X103766095Y-46963295D01*
X103766095Y-46963295D02*
X103813714Y-46868057D01*
X103813714Y-46868057D02*
X103861333Y-46820438D01*
X103861333Y-46820438D02*
X103956571Y-46772819D01*
X103956571Y-46772819D02*
X104194666Y-46772819D01*
X104194666Y-46772819D02*
X104337523Y-46820438D01*
X104670857Y-46772819D02*
X105289904Y-46772819D01*
X105289904Y-46772819D02*
X104956571Y-47153771D01*
X104956571Y-47153771D02*
X105099428Y-47153771D01*
X105099428Y-47153771D02*
X105194666Y-47201390D01*
X105194666Y-47201390D02*
X105242285Y-47249009D01*
X105242285Y-47249009D02*
X105289904Y-47344247D01*
X105289904Y-47344247D02*
X105289904Y-47582342D01*
X105289904Y-47582342D02*
X105242285Y-47677580D01*
X105242285Y-47677580D02*
X105194666Y-47725200D01*
X105194666Y-47725200D02*
X105099428Y-47772819D01*
X105099428Y-47772819D02*
X104813714Y-47772819D01*
X104813714Y-47772819D02*
X104718476Y-47725200D01*
X104718476Y-47725200D02*
X104670857Y-47677580D01*
X93608095Y-30374819D02*
X93608095Y-29374819D01*
X93608095Y-29851009D02*
X94179523Y-29851009D01*
X94179523Y-30374819D02*
X94179523Y-29374819D01*
X95084285Y-29708152D02*
X95084285Y-30374819D01*
X94846190Y-29327200D02*
X94608095Y-30041485D01*
X94608095Y-30041485D02*
X95227142Y-30041485D01*
X145708095Y-55274819D02*
X145708095Y-54274819D01*
X145708095Y-54751009D02*
X146279523Y-54751009D01*
X146279523Y-55274819D02*
X146279523Y-54274819D01*
X146708095Y-54370057D02*
X146755714Y-54322438D01*
X146755714Y-54322438D02*
X146850952Y-54274819D01*
X146850952Y-54274819D02*
X147089047Y-54274819D01*
X147089047Y-54274819D02*
X147184285Y-54322438D01*
X147184285Y-54322438D02*
X147231904Y-54370057D01*
X147231904Y-54370057D02*
X147279523Y-54465295D01*
X147279523Y-54465295D02*
X147279523Y-54560533D01*
X147279523Y-54560533D02*
X147231904Y-54703390D01*
X147231904Y-54703390D02*
X146660476Y-55274819D01*
X146660476Y-55274819D02*
X147279523Y-55274819D01*
X122648095Y-35457200D02*
X122790952Y-35504819D01*
X122790952Y-35504819D02*
X123029047Y-35504819D01*
X123029047Y-35504819D02*
X123124285Y-35457200D01*
X123124285Y-35457200D02*
X123171904Y-35409580D01*
X123171904Y-35409580D02*
X123219523Y-35314342D01*
X123219523Y-35314342D02*
X123219523Y-35219104D01*
X123219523Y-35219104D02*
X123171904Y-35123866D01*
X123171904Y-35123866D02*
X123124285Y-35076247D01*
X123124285Y-35076247D02*
X123029047Y-35028628D01*
X123029047Y-35028628D02*
X122838571Y-34981009D01*
X122838571Y-34981009D02*
X122743333Y-34933390D01*
X122743333Y-34933390D02*
X122695714Y-34885771D01*
X122695714Y-34885771D02*
X122648095Y-34790533D01*
X122648095Y-34790533D02*
X122648095Y-34695295D01*
X122648095Y-34695295D02*
X122695714Y-34600057D01*
X122695714Y-34600057D02*
X122743333Y-34552438D01*
X122743333Y-34552438D02*
X122838571Y-34504819D01*
X122838571Y-34504819D02*
X123076666Y-34504819D01*
X123076666Y-34504819D02*
X123219523Y-34552438D01*
X123600476Y-34600057D02*
X123648095Y-34552438D01*
X123648095Y-34552438D02*
X123743333Y-34504819D01*
X123743333Y-34504819D02*
X123981428Y-34504819D01*
X123981428Y-34504819D02*
X124076666Y-34552438D01*
X124076666Y-34552438D02*
X124124285Y-34600057D01*
X124124285Y-34600057D02*
X124171904Y-34695295D01*
X124171904Y-34695295D02*
X124171904Y-34790533D01*
X124171904Y-34790533D02*
X124124285Y-34933390D01*
X124124285Y-34933390D02*
X123552857Y-35504819D01*
X123552857Y-35504819D02*
X124171904Y-35504819D01*
X135177200Y-47123332D02*
X135224819Y-46980475D01*
X135224819Y-46980475D02*
X135224819Y-46742380D01*
X135224819Y-46742380D02*
X135177200Y-46647142D01*
X135177200Y-46647142D02*
X135129580Y-46599523D01*
X135129580Y-46599523D02*
X135034342Y-46551904D01*
X135034342Y-46551904D02*
X134939104Y-46551904D01*
X134939104Y-46551904D02*
X134843866Y-46599523D01*
X134843866Y-46599523D02*
X134796247Y-46647142D01*
X134796247Y-46647142D02*
X134748628Y-46742380D01*
X134748628Y-46742380D02*
X134701009Y-46932856D01*
X134701009Y-46932856D02*
X134653390Y-47028094D01*
X134653390Y-47028094D02*
X134605771Y-47075713D01*
X134605771Y-47075713D02*
X134510533Y-47123332D01*
X134510533Y-47123332D02*
X134415295Y-47123332D01*
X134415295Y-47123332D02*
X134320057Y-47075713D01*
X134320057Y-47075713D02*
X134272438Y-47028094D01*
X134272438Y-47028094D02*
X134224819Y-46932856D01*
X134224819Y-46932856D02*
X134224819Y-46694761D01*
X134224819Y-46694761D02*
X134272438Y-46551904D01*
X134224819Y-46218570D02*
X135224819Y-45980475D01*
X135224819Y-45980475D02*
X134510533Y-45789999D01*
X134510533Y-45789999D02*
X135224819Y-45599523D01*
X135224819Y-45599523D02*
X134224819Y-45361428D01*
X135224819Y-44456666D02*
X135224819Y-45028094D01*
X135224819Y-44742380D02*
X134224819Y-44742380D01*
X134224819Y-44742380D02*
X134367676Y-44837618D01*
X134367676Y-44837618D02*
X134462914Y-44932856D01*
X134462914Y-44932856D02*
X134510533Y-45028094D01*
X137390357Y-58824618D02*
X137390357Y-57324618D01*
X137390357Y-57324618D02*
X137747500Y-57324618D01*
X137747500Y-57324618D02*
X137961786Y-57396047D01*
X137961786Y-57396047D02*
X138104643Y-57538904D01*
X138104643Y-57538904D02*
X138176072Y-57681761D01*
X138176072Y-57681761D02*
X138247500Y-57967475D01*
X138247500Y-57967475D02*
X138247500Y-58181761D01*
X138247500Y-58181761D02*
X138176072Y-58467475D01*
X138176072Y-58467475D02*
X138104643Y-58610332D01*
X138104643Y-58610332D02*
X137961786Y-58753190D01*
X137961786Y-58753190D02*
X137747500Y-58824618D01*
X137747500Y-58824618D02*
X137390357Y-58824618D01*
X138961786Y-58824618D02*
X139247500Y-58824618D01*
X139247500Y-58824618D02*
X139390357Y-58753190D01*
X139390357Y-58753190D02*
X139461786Y-58681761D01*
X139461786Y-58681761D02*
X139604643Y-58467475D01*
X139604643Y-58467475D02*
X139676072Y-58181761D01*
X139676072Y-58181761D02*
X139676072Y-57610332D01*
X139676072Y-57610332D02*
X139604643Y-57467475D01*
X139604643Y-57467475D02*
X139533215Y-57396047D01*
X139533215Y-57396047D02*
X139390357Y-57324618D01*
X139390357Y-57324618D02*
X139104643Y-57324618D01*
X139104643Y-57324618D02*
X138961786Y-57396047D01*
X138961786Y-57396047D02*
X138890357Y-57467475D01*
X138890357Y-57467475D02*
X138818929Y-57610332D01*
X138818929Y-57610332D02*
X138818929Y-57967475D01*
X138818929Y-57967475D02*
X138890357Y-58110332D01*
X138890357Y-58110332D02*
X138961786Y-58181761D01*
X138961786Y-58181761D02*
X139104643Y-58253190D01*
X139104643Y-58253190D02*
X139390357Y-58253190D01*
X139390357Y-58253190D02*
X139533215Y-58181761D01*
X139533215Y-58181761D02*
X139604643Y-58110332D01*
X139604643Y-58110332D02*
X139676072Y-57967475D01*
D12*
%TO.C,D4*%
X87510000Y-53520000D02*
X88160000Y-53520000D01*
X88760000Y-52400000D02*
X88760000Y-54640000D01*
X88880000Y-52400000D02*
X88880000Y-54640000D01*
X89000000Y-52400000D02*
X89000000Y-54640000D01*
X93050000Y-53520000D02*
X92400000Y-53520000D01*
X88160000Y-52400000D02*
X92400000Y-52400000D01*
X92400000Y-54640000D01*
X88160000Y-54640000D01*
X88160000Y-52400000D01*
D13*
%TO.C,S4*%
X117953000Y-49233000D02*
X117953000Y-64727000D01*
X117953000Y-64727000D02*
X133447000Y-64727000D01*
X133447000Y-49233000D02*
X117953000Y-49233000D01*
X133447000Y-64727000D02*
X133447000Y-49233000D01*
%TO.C,S1*%
X101593000Y-32983000D02*
X101593000Y-48477000D01*
X101593000Y-48477000D02*
X117087000Y-48477000D01*
X117087000Y-32983000D02*
X101593000Y-32983000D01*
X117087000Y-48477000D02*
X117087000Y-32983000D01*
D12*
%TO.C,D2*%
X87410000Y-46730000D02*
X88060000Y-46730000D01*
X88660000Y-45610000D02*
X88660000Y-47850000D01*
X88780000Y-45610000D02*
X88780000Y-47850000D01*
X88900000Y-45610000D02*
X88900000Y-47850000D01*
X92950000Y-46730000D02*
X92300000Y-46730000D01*
X88060000Y-45610000D02*
X92300000Y-45610000D01*
X92300000Y-47850000D01*
X88060000Y-47850000D01*
X88060000Y-45610000D01*
%TO.C,D1*%
X103810000Y-31190000D02*
X104460000Y-31190000D01*
X105060000Y-30070000D02*
X105060000Y-32310000D01*
X105180000Y-30070000D02*
X105180000Y-32310000D01*
X105300000Y-30070000D02*
X105300000Y-32310000D01*
X109350000Y-31190000D02*
X108700000Y-31190000D01*
X104460000Y-30070000D02*
X108700000Y-30070000D01*
X108700000Y-32310000D01*
X104460000Y-32310000D01*
X104460000Y-30070000D01*
%TO.C,D5*%
X122980000Y-31050000D02*
X123630000Y-31050000D01*
X124230000Y-29930000D02*
X124230000Y-32170000D01*
X124350000Y-29930000D02*
X124350000Y-32170000D01*
X124470000Y-29930000D02*
X124470000Y-32170000D01*
X128520000Y-31050000D02*
X127870000Y-31050000D01*
X123630000Y-29930000D02*
X127870000Y-29930000D01*
X127870000Y-32170000D01*
X123630000Y-32170000D01*
X123630000Y-29930000D01*
D13*
%TO.C,U4*%
X63495000Y-32470000D02*
X63495000Y-49470000D01*
X65495000Y-51470000D02*
X79295000Y-51470000D01*
X67895000Y-29045970D02*
X76895000Y-29045970D01*
X67895000Y-36399270D02*
X67895000Y-29045970D01*
X76895000Y-29045970D02*
X76895000Y-36399270D01*
X76895000Y-36399270D02*
X67895000Y-36399270D01*
X79295000Y-30470910D02*
X65495000Y-30470910D01*
X81295000Y-49470000D02*
X81295000Y-32470000D01*
D12*
X63495000Y-32470000D02*
G75*
G02*
X65495000Y-30470000I2044612J-44612D01*
G01*
X65495000Y-51470000D02*
G75*
G02*
X63495000Y-49470000I44857J2044857D01*
G01*
X79295000Y-30470000D02*
G75*
G02*
X81295000Y-32470000I-44610J-2044610D01*
G01*
X81295000Y-49470000D02*
G75*
G02*
X79295000Y-51470000I-2000000J0D01*
G01*
D14*
X61522000Y-32170000D02*
G75*
G02*
X61268000Y-32170000I-127000J0D01*
G01*
X61268000Y-32170000D02*
G75*
G02*
X61522000Y-32170000I127000J0D01*
G01*
D15*
X63507285Y-32408295D02*
X63510333Y-32359527D01*
X63514397Y-32310506D01*
X63507285Y-32408295D01*
X81282713Y-49540850D02*
X81279665Y-49589618D01*
X81275601Y-49638639D01*
X81270268Y-49687407D01*
X81263664Y-49736175D01*
X81256044Y-49784690D01*
X81247153Y-49832950D01*
X81237248Y-49880955D01*
X81284492Y-49491574D01*
X81282713Y-49540850D01*
D13*
%TO.C,D8*%
X84350000Y-63100000D02*
X83950000Y-63100000D01*
X92250000Y-61600000D02*
X92650000Y-61600000D01*
X92450000Y-61400000D02*
X92450000Y-61800000D01*
%TO.C,S3*%
X101603000Y-49203000D02*
X101603000Y-64697000D01*
X101603000Y-64697000D02*
X117097000Y-64697000D01*
X117097000Y-49203000D02*
X101603000Y-49203000D01*
X117097000Y-64697000D02*
X117097000Y-49203000D01*
%TO.C,S2*%
X117963000Y-32993000D02*
X117963000Y-48487000D01*
X117963000Y-48487000D02*
X133457000Y-48487000D01*
X133457000Y-32993000D02*
X117963000Y-32993000D01*
X133457000Y-48487000D02*
X133457000Y-32993000D01*
D12*
%TO.C,D3*%
X87430000Y-50290000D02*
X88080000Y-50290000D01*
X88680000Y-49170000D02*
X88680000Y-51410000D01*
X88800000Y-49170000D02*
X88800000Y-51410000D01*
X88920000Y-49170000D02*
X88920000Y-51410000D01*
X92970000Y-50290000D02*
X92320000Y-50290000D01*
X88080000Y-49170000D02*
X92320000Y-49170000D01*
X92320000Y-51410000D01*
X88080000Y-51410000D01*
X88080000Y-49170000D01*
%TO.C,SW1*%
X136070000Y-34990000D02*
X138470000Y-34990000D01*
X136070000Y-39090000D02*
X136070000Y-34990000D01*
X136070000Y-43090000D02*
X136070000Y-47190000D01*
X136070000Y-47190000D02*
X147870000Y-47190000D01*
X137870000Y-48290000D02*
X138170000Y-48590000D01*
X137870000Y-48890000D02*
X137870000Y-48290000D01*
X138170000Y-48590000D02*
X137870000Y-48890000D01*
X140670000Y-34990000D02*
X143270000Y-34990000D01*
X141470000Y-41090000D02*
X142470000Y-41090000D01*
X141970000Y-41590000D02*
X141970000Y-40590000D01*
X145470000Y-34990000D02*
X147870000Y-34990000D01*
X147870000Y-34990000D02*
X147870000Y-39090000D01*
X147870000Y-43090000D02*
X147870000Y-47190000D01*
X144970000Y-41090000D02*
G75*
G02*
X138970000Y-41090000I-3000000J0D01*
G01*
X138970000Y-41090000D02*
G75*
G02*
X144970000Y-41090000I3000000J0D01*
G01*
D13*
%TO.C,D9*%
X135290000Y-55700000D02*
X135290000Y-55300000D01*
X135490000Y-55500000D02*
X135090000Y-55500000D01*
X143390000Y-54000000D02*
X143790000Y-54000000D01*
%TD*%
M02*
