%TF.GenerationSoftware,KiCad,Pcbnew,9.0.6*%
%TF.CreationDate,2026-08-08T23:25:59-04:00*%
%TF.ProjectId,PCB_Related,5043425f-5265-46c6-9174-65642e6b6963,rev?*%
%TF.SameCoordinates,Original*%
%TF.FileFunction,Copper,L1,Top*%
%TF.FilePolarity,Positive*%
%FSLAX46Y46*%
G04 Gerber Fmt 4.6, Leading zero omitted, Abs format (unit mm)*
G04 Created by KiCad (PCBNEW 9.0.6) date 2026-08-08 23:25:59*
%MOMM*%
%LPD*%
G01*
G04 APERTURE LIST*
G04 Aperture macros list*
%AMRoundRect*
0 Rectangle with rounded corners*
0 $1 Rounding radius*
0 $2 $3 $4 $5 $6 $7 $8 $9 X,Y pos of 4 corners*
0 Add a 4 corners polygon primitive as box body*
4,1,4,$2,$3,$4,$5,$6,$7,$8,$9,$2,$3,0*
0 Add four circle primitives for the rounded corners*
1,1,$1+$1,$2,$3*
1,1,$1+$1,$4,$5*
1,1,$1+$1,$6,$7*
1,1,$1+$1,$8,$9*
0 Add four rect primitives between the rounded corners*
20,1,$1+$1,$2,$3,$4,$5,0*
20,1,$1+$1,$4,$5,$6,$7,0*
20,1,$1+$1,$6,$7,$8,$9,0*
20,1,$1+$1,$8,$9,$2,$3,0*%
G04 Aperture macros list end*
%TA.AperFunction,ComponentPad*%
%ADD10RoundRect,0.250000X-0.550000X-0.550000X0.550000X-0.550000X0.550000X0.550000X-0.550000X0.550000X0*%
%TD*%
%TA.AperFunction,ComponentPad*%
%ADD11C,1.600000*%
%TD*%
%TA.AperFunction,ComponentPad*%
%ADD12C,2.324100*%
%TD*%
%TA.AperFunction,ComponentPad*%
%ADD13R,3.500000X1.700000*%
%TD*%
%TA.AperFunction,ComponentPad*%
%ADD14O,3.600000X1.700000*%
%TD*%
%TA.AperFunction,ComponentPad*%
%ADD15O,3.700000X1.700000*%
%TD*%
%TA.AperFunction,SMDPad,CuDef*%
%ADD16R,1.800000X0.820000*%
%TD*%
%TA.AperFunction,ComponentPad*%
%ADD17R,2.000000X2.000000*%
%TD*%
%TA.AperFunction,ComponentPad*%
%ADD18C,2.000000*%
%TD*%
%TA.AperFunction,ComponentPad*%
%ADD19R,2.000000X3.200000*%
%TD*%
%TA.AperFunction,ViaPad*%
%ADD20C,0.600000*%
%TD*%
%TA.AperFunction,Conductor*%
%ADD21C,0.127000*%
%TD*%
%TA.AperFunction,Conductor*%
%ADD22C,0.200000*%
%TD*%
G04 APERTURE END LIST*
D10*
%TO.P,D4,1,K*%
%TO.N,ROW1*%
X86470000Y-53520000D03*
D11*
%TO.P,D4,2,A*%
%TO.N,Net-(D4-A)*%
X94090000Y-53520000D03*
%TD*%
D12*
%TO.P,S4,1*%
%TO.N,Net-(D4-A)*%
X121890000Y-54440000D03*
%TO.P,S4,2*%
%TO.N,COL1*%
X128240000Y-51900000D03*
%TD*%
%TO.P,S1,1*%
%TO.N,Net-(D1-A)*%
X105530000Y-38190000D03*
%TO.P,S1,2*%
%TO.N,COL0*%
X111880000Y-35650000D03*
%TD*%
D10*
%TO.P,D2,1,K*%
%TO.N,ROW0*%
X86370000Y-46730000D03*
D11*
%TO.P,D2,2,A*%
%TO.N,Net-(D2-A)*%
X93990000Y-46730000D03*
%TD*%
D10*
%TO.P,D1,1,K*%
%TO.N,ROW0*%
X102770000Y-31190000D03*
D11*
%TO.P,D1,2,A*%
%TO.N,Net-(D1-A)*%
X110390000Y-31190000D03*
%TD*%
D10*
%TO.P,D5,1,K*%
%TO.N,ROW0*%
X121940000Y-31050000D03*
D11*
%TO.P,D5,2,A*%
%TO.N,A*%
X129560000Y-31050000D03*
%TD*%
D13*
%TO.P,U4,1,PA02_A0_D0*%
%TO.N,unconnected-(U4-PA02_A0_D0-Pad1)*%
X63770000Y-33350000D03*
D14*
%TO.P,U4,2,PA4_A1_D1*%
%TO.N,unconnected-(U4-PA4_A1_D1-Pad2)*%
X63770000Y-35890000D03*
%TO.P,U4,3,PA10_A2_D2*%
%TO.N,unconnected-(U4-PA10_A2_D2-Pad3)*%
X63770000Y-38430000D03*
%TO.P,U4,4,PA11_A3_D3*%
%TO.N,B*%
X63770000Y-40970000D03*
%TO.P,U4,5,PA8_A4_D4_SDA*%
%TO.N,AUP*%
X63770000Y-43510000D03*
%TO.P,U4,6,PA9_A5_D5_SCL*%
%TO.N,BDOWN*%
X63770000Y-46050000D03*
%TO.P,U4,7,PB08_A6_D6_TX*%
%TO.N,LED*%
X63770000Y-48590000D03*
%TO.P,U4,8,PB09_A7_D7_RX*%
%TO.N,ROW1*%
X81020000Y-48590000D03*
%TO.P,U4,9,PA7_A8_D8_SCK*%
%TO.N,ROW0*%
X81020000Y-46050000D03*
%TO.P,U4,10,PA5_A9_D9_MISO*%
%TO.N,COL1*%
X81020000Y-43510000D03*
D15*
%TO.P,U4,11,PA6_A10_D10_MOSI*%
%TO.N,COL0*%
X81020000Y-40970000D03*
%TO.P,U4,12,3V3*%
%TO.N,unconnected-(U4-3V3-Pad12)*%
X81020000Y-38430000D03*
%TO.P,U4,13,GND*%
%TO.N,GND*%
X81020000Y-35890000D03*
%TO.P,U4,14,5V*%
%TO.N,VCC*%
X81020000Y-33350000D03*
%TD*%
D16*
%TO.P,D8,1,VDD*%
%TO.N,VCC*%
X90950000Y-61600000D03*
%TO.P,D8,2,DOUT*%
%TO.N,Net-(D8-DOUT)*%
X90950000Y-63100000D03*
%TO.P,D8,3,GND*%
%TO.N,GND*%
X85750000Y-63100000D03*
%TO.P,D8,4,DIN*%
%TO.N,LED*%
X85750000Y-61600000D03*
%TD*%
D12*
%TO.P,S3,1*%
%TO.N,Net-(D3-A)*%
X105540000Y-54410000D03*
%TO.P,S3,2*%
%TO.N,COL0*%
X111890000Y-51870000D03*
%TD*%
%TO.P,S2,1*%
%TO.N,Net-(D2-A)*%
X121900000Y-38200000D03*
%TO.P,S2,2*%
%TO.N,COL1*%
X128250000Y-35660000D03*
%TD*%
D10*
%TO.P,D3,1,K*%
%TO.N,ROW1*%
X86390000Y-50290000D03*
D11*
%TO.P,D3,2,A*%
%TO.N,Net-(D3-A)*%
X94010000Y-50290000D03*
%TD*%
D17*
%TO.P,SW1,A,A*%
%TO.N,AUP*%
X139470000Y-48590000D03*
D18*
%TO.P,SW1,B,B*%
%TO.N,BDOWN*%
X144470000Y-48590000D03*
%TO.P,SW1,C,C*%
%TO.N,GND*%
X141970000Y-48590000D03*
D19*
%TO.P,SW1,MP*%
%TO.N,N/C*%
X136370000Y-41090000D03*
X147570000Y-41090000D03*
D18*
%TO.P,SW1,S1,S1*%
%TO.N,B*%
X144470000Y-34090000D03*
%TO.P,SW1,S2,S2*%
%TO.N,A*%
X139470000Y-34090000D03*
%TD*%
D16*
%TO.P,D9,1,VDD*%
%TO.N,VCC*%
X136790000Y-55500000D03*
%TO.P,D9,2,DOUT*%
%TO.N,unconnected-(D9-DOUT-Pad2)*%
X136790000Y-54000000D03*
%TO.P,D9,3,GND*%
%TO.N,GND*%
X141990000Y-54000000D03*
%TO.P,D9,4,DIN*%
%TO.N,Net-(D8-DOUT)*%
X141990000Y-55500000D03*
%TD*%
D20*
%TO.N,COL0*%
X103530000Y-36880000D03*
%TO.N,ROW0*%
X102430000Y-45330000D03*
%TO.N,VCC*%
X97870000Y-60690000D03*
X99010000Y-49470000D03*
X99080000Y-47970000D03*
%TO.N,Net-(D2-A)*%
X111240000Y-46470000D03*
%TD*%
D21*
%TO.N,BDOWN*%
X66268500Y-47548500D02*
X64770000Y-46050000D01*
X82401403Y-47548500D02*
X66268500Y-47548500D01*
X83011500Y-48158597D02*
X82401403Y-47548500D01*
X93280790Y-48158597D02*
X83011500Y-48158597D01*
X95922193Y-50800000D02*
X93280790Y-48158597D01*
X111329341Y-53223550D02*
X108905791Y-50800000D01*
X112450659Y-53223550D02*
X111329341Y-53223550D01*
X108905791Y-50800000D02*
X95922193Y-50800000D01*
X113243550Y-52430659D02*
X112450659Y-53223550D01*
X126856450Y-52430659D02*
X113243550Y-52430659D01*
X127679341Y-53253550D02*
X126856450Y-52430659D01*
X128800659Y-53253550D02*
X127679341Y-53253550D01*
X129593550Y-52460659D02*
X128800659Y-53253550D01*
X140599341Y-52460659D02*
X129593550Y-52460659D01*
X144470000Y-48590000D02*
X140599341Y-52460659D01*
D22*
%TO.N,COL0*%
X111880000Y-35650000D02*
X111880000Y-51860000D01*
X111880000Y-51860000D02*
X111890000Y-51870000D01*
D21*
X99440000Y-40970000D02*
X80020000Y-40970000D01*
X103530000Y-36880000D02*
X99440000Y-40970000D01*
%TO.N,COL1*%
X111319341Y-34296450D02*
X126886450Y-34296450D01*
X110526450Y-36207137D02*
X110526450Y-35089341D01*
X110526450Y-35089341D02*
X111319341Y-34296450D01*
D22*
X128250000Y-35660000D02*
X128250000Y-51890000D01*
D21*
X80020000Y-43510000D02*
X103223587Y-43510000D01*
D22*
X128250000Y-51890000D02*
X128240000Y-51900000D01*
D21*
X126886450Y-34296450D02*
X128250000Y-35660000D01*
X103223587Y-43510000D02*
X110526450Y-36207137D01*
%TO.N,ROW0*%
X121940000Y-31050000D02*
X121088500Y-30198500D01*
X87770000Y-45330000D02*
X102430000Y-45330000D01*
X80700000Y-46730000D02*
X86370000Y-46730000D01*
X80020000Y-46050000D02*
X80700000Y-46730000D01*
X86370000Y-46730000D02*
X87770000Y-45330000D01*
X121088500Y-30198500D02*
X103761500Y-30198500D01*
X103761500Y-30198500D02*
X102770000Y-31190000D01*
%TO.N,ROW1*%
X80020000Y-48590000D02*
X81720000Y-50290000D01*
X86470000Y-50370000D02*
X86390000Y-50290000D01*
X81720000Y-50290000D02*
X86390000Y-50290000D01*
X86470000Y-53520000D02*
X86470000Y-50370000D01*
%TO.N,A*%
X129560000Y-31050000D02*
X136430000Y-31050000D01*
X136430000Y-31050000D02*
X139470000Y-34090000D01*
%TO.N,B*%
X75796499Y-29943501D02*
X64770000Y-40970000D01*
X144470000Y-34090000D02*
X140323501Y-29943501D01*
X140323501Y-29943501D02*
X75796499Y-29943501D01*
%TO.N,VCC*%
X90950000Y-61600000D02*
X96960000Y-61600000D01*
X96960000Y-61600000D02*
X97870000Y-60690000D01*
X130690000Y-61600000D02*
X90950000Y-61600000D01*
X99010000Y-49470000D02*
X99080000Y-49400000D01*
X99080000Y-49400000D02*
X99080000Y-47970000D01*
X136790000Y-55500000D02*
X130690000Y-61600000D01*
%TO.N,LED*%
X77780000Y-61600000D02*
X64770000Y-48590000D01*
X85750000Y-61600000D02*
X77780000Y-61600000D01*
%TO.N,Net-(D1-A)*%
X110390000Y-33330000D02*
X105530000Y-38190000D01*
X110390000Y-31190000D02*
X110390000Y-33330000D01*
%TO.N,Net-(D2-A)*%
X93990000Y-46730000D02*
X110980000Y-46730000D01*
X110980000Y-46730000D02*
X111240000Y-46470000D01*
%TO.N,Net-(D3-A)*%
X105540000Y-54410000D02*
X98130000Y-54410000D01*
X98130000Y-54410000D02*
X94010000Y-50290000D01*
%TO.N,Net-(D4-A)*%
X108523587Y-54440000D02*
X107200037Y-55763550D01*
X121890000Y-54440000D02*
X108523587Y-54440000D01*
X96333550Y-55763550D02*
X94090000Y-53520000D01*
X107200037Y-55763550D02*
X96333550Y-55763550D01*
%TO.N,Net-(D8-DOUT)*%
X135038324Y-63100000D02*
X141990000Y-56148324D01*
X90950000Y-63100000D02*
X135038324Y-63100000D01*
X141990000Y-56148324D02*
X141990000Y-55500000D01*
%TD*%
%TA.AperFunction,Conductor*%
%TO.N,GND*%
G36*
X101412539Y-30527186D02*
G01*
X101458294Y-30579990D01*
X101469500Y-30631501D01*
X101469500Y-31790001D01*
X101469501Y-31790018D01*
X101480000Y-31892796D01*
X101480001Y-31892799D01*
X101526378Y-32032753D01*
X101535186Y-32059334D01*
X101627288Y-32208656D01*
X101751344Y-32332712D01*
X101900666Y-32424814D01*
X102067203Y-32479999D01*
X102169991Y-32490500D01*
X103370008Y-32490499D01*
X103472797Y-32479999D01*
X103639334Y-32424814D01*
X103788656Y-32332712D01*
X103912712Y-32208656D01*
X104004814Y-32059334D01*
X104059999Y-31892797D01*
X104070500Y-31790009D01*
X104070499Y-30886499D01*
X104090183Y-30819461D01*
X104142987Y-30773706D01*
X104194499Y-30762500D01*
X108995814Y-30762500D01*
X109062853Y-30782185D01*
X109108608Y-30834989D01*
X109118552Y-30904147D01*
X109118287Y-30905898D01*
X109089500Y-31087648D01*
X109089500Y-31292351D01*
X109121522Y-31494534D01*
X109184781Y-31689223D01*
X109277715Y-31871613D01*
X109398028Y-32037213D01*
X109542786Y-32181971D01*
X109708388Y-32302286D01*
X109758294Y-32327714D01*
X109809090Y-32375687D01*
X109826000Y-32438199D01*
X109826000Y-33045021D01*
X109806315Y-33112060D01*
X109789681Y-33132702D01*
X106300982Y-36621400D01*
X106239659Y-36654885D01*
X106173038Y-36650120D01*
X106172831Y-36650759D01*
X106170253Y-36649921D01*
X106169967Y-36649901D01*
X106168909Y-36649484D01*
X105919317Y-36568387D01*
X105660851Y-36527450D01*
X105660846Y-36527450D01*
X105399154Y-36527450D01*
X105399149Y-36527450D01*
X105140684Y-36568386D01*
X104891797Y-36649255D01*
X104658630Y-36768062D01*
X104522893Y-36866680D01*
X104457086Y-36890160D01*
X104389033Y-36874334D01*
X104340338Y-36824228D01*
X104328391Y-36790553D01*
X104304510Y-36670498D01*
X104299737Y-36646503D01*
X104299735Y-36646498D01*
X104239397Y-36500827D01*
X104239390Y-36500814D01*
X104151789Y-36369711D01*
X104151786Y-36369707D01*
X104040292Y-36258213D01*
X104040288Y-36258210D01*
X103909185Y-36170609D01*
X103909172Y-36170602D01*
X103763501Y-36110264D01*
X103763489Y-36110261D01*
X103608845Y-36079500D01*
X103608842Y-36079500D01*
X103451158Y-36079500D01*
X103451155Y-36079500D01*
X103296510Y-36110261D01*
X103296498Y-36110264D01*
X103150827Y-36170602D01*
X103150814Y-36170609D01*
X103019711Y-36258210D01*
X103019707Y-36258213D01*
X102908213Y-36369707D01*
X102908210Y-36369711D01*
X102820609Y-36500814D01*
X102820602Y-36500827D01*
X102760264Y-36646498D01*
X102760261Y-36646510D01*
X102729500Y-36801153D01*
X102729500Y-36831522D01*
X102709815Y-36898561D01*
X102693181Y-36919203D01*
X99242703Y-40369681D01*
X99181380Y-40403166D01*
X99155022Y-40406000D01*
X83324316Y-40406000D01*
X83257277Y-40386315D01*
X83213831Y-40338294D01*
X83175050Y-40262182D01*
X83050109Y-40090213D01*
X82899786Y-39939890D01*
X82727820Y-39814951D01*
X82727115Y-39814591D01*
X82719054Y-39810485D01*
X82668259Y-39762512D01*
X82651463Y-39694692D01*
X82673999Y-39628556D01*
X82719054Y-39589515D01*
X82727816Y-39585051D01*
X82749789Y-39569086D01*
X82899786Y-39460109D01*
X82899788Y-39460106D01*
X82899792Y-39460104D01*
X83050104Y-39309792D01*
X83050106Y-39309788D01*
X83050109Y-39309786D01*
X83175048Y-39137820D01*
X83175047Y-39137820D01*
X83175051Y-39137816D01*
X83271557Y-38948412D01*
X83337246Y-38746243D01*
X83370500Y-38536287D01*
X83370500Y-38323713D01*
X83337246Y-38113757D01*
X83271557Y-37911588D01*
X83175051Y-37722184D01*
X83175049Y-37722181D01*
X83175048Y-37722179D01*
X83050109Y-37550213D01*
X82899786Y-37399890D01*
X82727817Y-37274949D01*
X82718504Y-37270204D01*
X82667707Y-37222230D01*
X82650912Y-37154409D01*
X82673449Y-37088274D01*
X82718507Y-37049232D01*
X82727558Y-37044620D01*
X82899459Y-36919727D01*
X82899464Y-36919723D01*
X83049723Y-36769464D01*
X83049727Y-36769459D01*
X83174620Y-36597557D01*
X83271095Y-36408217D01*
X83336757Y-36206129D01*
X83336757Y-36206126D01*
X83347231Y-36140000D01*
X80453012Y-36140000D01*
X80485925Y-36082993D01*
X80520000Y-35955826D01*
X80520000Y-35824174D01*
X80485925Y-35697007D01*
X80453012Y-35640000D01*
X83347231Y-35640000D01*
X83336757Y-35573873D01*
X83336757Y-35573870D01*
X83271095Y-35371782D01*
X83174620Y-35182442D01*
X83049727Y-35010540D01*
X83049723Y-35010535D01*
X82899464Y-34860276D01*
X82899459Y-34860272D01*
X82727555Y-34735377D01*
X82718500Y-34730763D01*
X82667706Y-34682788D01*
X82650912Y-34614966D01*
X82673451Y-34548832D01*
X82718508Y-34509793D01*
X82727816Y-34505051D01*
X82827906Y-34432332D01*
X92269500Y-34432332D01*
X92269500Y-34707667D01*
X92269501Y-34707684D01*
X92305438Y-34980655D01*
X92305439Y-34980660D01*
X92305440Y-34980666D01*
X92316721Y-35022768D01*
X92376704Y-35246630D01*
X92482075Y-35501017D01*
X92482080Y-35501028D01*
X92562317Y-35640000D01*
X92619751Y-35739479D01*
X92619753Y-35739482D01*
X92619754Y-35739483D01*
X92787370Y-35957926D01*
X92787376Y-35957933D01*
X92982066Y-36152623D01*
X92982073Y-36152629D01*
X93051945Y-36206243D01*
X93200521Y-36320249D01*
X93352886Y-36408217D01*
X93438971Y-36457919D01*
X93438976Y-36457921D01*
X93438979Y-36457923D01*
X93693368Y-36563295D01*
X93959334Y-36634560D01*
X94232326Y-36670500D01*
X94232333Y-36670500D01*
X94507667Y-36670500D01*
X94507674Y-36670500D01*
X94780666Y-36634560D01*
X95046632Y-36563295D01*
X95301021Y-36457923D01*
X95539479Y-36320249D01*
X95757928Y-36152628D01*
X95952628Y-35957928D01*
X96120249Y-35739479D01*
X96257923Y-35501021D01*
X96363295Y-35246632D01*
X96434560Y-34980666D01*
X96470500Y-34707674D01*
X96470500Y-34432326D01*
X96434560Y-34159334D01*
X96363295Y-33893368D01*
X96257923Y-33638979D01*
X96257921Y-33638976D01*
X96257919Y-33638971D01*
X96182763Y-33508798D01*
X96120249Y-33400521D01*
X95952628Y-33182072D01*
X95952623Y-33182066D01*
X95757933Y-32987376D01*
X95757926Y-32987370D01*
X95539483Y-32819754D01*
X95539482Y-32819753D01*
X95539479Y-32819751D01*
X95444407Y-32764861D01*
X95301028Y-32682080D01*
X95301017Y-32682075D01*
X95046630Y-32576704D01*
X94913649Y-32541072D01*
X94780666Y-32505440D01*
X94780660Y-32505439D01*
X94780655Y-32505438D01*
X94507684Y-32469501D01*
X94507679Y-32469500D01*
X94507674Y-32469500D01*
X94232326Y-32469500D01*
X94232320Y-32469500D01*
X94232315Y-32469501D01*
X93959344Y-32505438D01*
X93959337Y-32505439D01*
X93959334Y-32505440D01*
X93903125Y-32520500D01*
X93693369Y-32576704D01*
X93438982Y-32682075D01*
X93438971Y-32682080D01*
X93200516Y-32819754D01*
X92982073Y-32987370D01*
X92982066Y-32987376D01*
X92787376Y-33182066D01*
X92787370Y-33182073D01*
X92619754Y-33400516D01*
X92619751Y-33400520D01*
X92619751Y-33400521D01*
X92617597Y-33404252D01*
X92482080Y-33638971D01*
X92482075Y-33638982D01*
X92376704Y-33893369D01*
X92332640Y-34057820D01*
X92316839Y-34116794D01*
X92305441Y-34159331D01*
X92305438Y-34159344D01*
X92269501Y-34432315D01*
X92269500Y-34432332D01*
X82827906Y-34432332D01*
X82827929Y-34432315D01*
X82899786Y-34380109D01*
X82899788Y-34380106D01*
X82899792Y-34380104D01*
X83050104Y-34229792D01*
X83050106Y-34229788D01*
X83050109Y-34229786D01*
X83175048Y-34057820D01*
X83175047Y-34057820D01*
X83175051Y-34057816D01*
X83271557Y-33868412D01*
X83337246Y-33666243D01*
X83370500Y-33456287D01*
X83370500Y-33243713D01*
X83337246Y-33033757D01*
X83271557Y-32831588D01*
X83175051Y-32642184D01*
X83175049Y-32642181D01*
X83175048Y-32642179D01*
X83050109Y-32470213D01*
X82899786Y-32319890D01*
X82727820Y-32194951D01*
X82538414Y-32098444D01*
X82538413Y-32098443D01*
X82538412Y-32098443D01*
X82336243Y-32032754D01*
X82336241Y-32032753D01*
X82336240Y-32032753D01*
X82174957Y-32007208D01*
X82126287Y-31999500D01*
X79913713Y-31999500D01*
X79865042Y-32007208D01*
X79703760Y-32032753D01*
X79501585Y-32098444D01*
X79312179Y-32194951D01*
X79140213Y-32319890D01*
X78989890Y-32470213D01*
X78864951Y-32642179D01*
X78768444Y-32831585D01*
X78702753Y-33033760D01*
X78669500Y-33243713D01*
X78669500Y-33456286D01*
X78699049Y-33642854D01*
X78702754Y-33666243D01*
X78760880Y-33845137D01*
X78768444Y-33868414D01*
X78864951Y-34057820D01*
X78989890Y-34229786D01*
X79140213Y-34380109D01*
X79312179Y-34505048D01*
X79312181Y-34505049D01*
X79312184Y-34505051D01*
X79321493Y-34509794D01*
X79372290Y-34557766D01*
X79389087Y-34625587D01*
X79366552Y-34691722D01*
X79321502Y-34730762D01*
X79312443Y-34735378D01*
X79140540Y-34860272D01*
X79140535Y-34860276D01*
X78990276Y-35010535D01*
X78990272Y-35010540D01*
X78865379Y-35182442D01*
X78768904Y-35371782D01*
X78703242Y-35573870D01*
X78703242Y-35573873D01*
X78692769Y-35640000D01*
X79586988Y-35640000D01*
X79554075Y-35697007D01*
X79520000Y-35824174D01*
X79520000Y-35955826D01*
X79554075Y-36082993D01*
X79586988Y-36140000D01*
X78692769Y-36140000D01*
X78703242Y-36206126D01*
X78703242Y-36206129D01*
X78768904Y-36408217D01*
X78865379Y-36597557D01*
X78990272Y-36769459D01*
X78990276Y-36769464D01*
X79140535Y-36919723D01*
X79140540Y-36919727D01*
X79312444Y-37044622D01*
X79321495Y-37049234D01*
X79372292Y-37097208D01*
X79389087Y-37165029D01*
X79366550Y-37231164D01*
X79321499Y-37270202D01*
X79312182Y-37274949D01*
X79140213Y-37399890D01*
X78989890Y-37550213D01*
X78864951Y-37722179D01*
X78768444Y-37911585D01*
X78702753Y-38113760D01*
X78674340Y-38293153D01*
X78669500Y-38323713D01*
X78669500Y-38536287D01*
X78673563Y-38561941D01*
X78694429Y-38693685D01*
X78702754Y-38746243D01*
X78732633Y-38838202D01*
X78768444Y-38948414D01*
X78864951Y-39137820D01*
X78989890Y-39309786D01*
X79140213Y-39460109D01*
X79312182Y-39585050D01*
X79320946Y-39589516D01*
X79371742Y-39637491D01*
X79388536Y-39705312D01*
X79365998Y-39771447D01*
X79320946Y-39810484D01*
X79312182Y-39814949D01*
X79140213Y-39939890D01*
X78989890Y-40090213D01*
X78864951Y-40262179D01*
X78768444Y-40451585D01*
X78702753Y-40653760D01*
X78683247Y-40776918D01*
X78669500Y-40863713D01*
X78669500Y-41076287D01*
X78702754Y-41286243D01*
X78765498Y-41479349D01*
X78768444Y-41488414D01*
X78864951Y-41677820D01*
X78989890Y-41849786D01*
X79140213Y-42000109D01*
X79312182Y-42125050D01*
X79347268Y-42142927D01*
X79398064Y-42190900D01*
X79414860Y-42258721D01*
X79392323Y-42324856D01*
X79363859Y-42353730D01*
X79190214Y-42479890D01*
X79190209Y-42479894D01*
X79039890Y-42630213D01*
X78914951Y-42802179D01*
X78818444Y-42991585D01*
X78752753Y-43193760D01*
X78719500Y-43403713D01*
X78719500Y-43616287D01*
X78752754Y-43826243D01*
X78796641Y-43961313D01*
X78818443Y-44028412D01*
X78914951Y-44217820D01*
X79039890Y-44389786D01*
X79190213Y-44540109D01*
X79362182Y-44665050D01*
X79370946Y-44669516D01*
X79421742Y-44717491D01*
X79438536Y-44785312D01*
X79415998Y-44851447D01*
X79370946Y-44890484D01*
X79362182Y-44894949D01*
X79190213Y-45019890D01*
X79039890Y-45170213D01*
X78914951Y-45342179D01*
X78818444Y-45531585D01*
X78752753Y-45733760D01*
X78748501Y-45760609D01*
X78719500Y-45943713D01*
X78719500Y-46156287D01*
X78724966Y-46190797D01*
X78752753Y-46366239D01*
X78752753Y-46366241D01*
X78752754Y-46366243D01*
X78807828Y-46535744D01*
X78818444Y-46568414D01*
X78914950Y-46757818D01*
X78936599Y-46787616D01*
X78960078Y-46853422D01*
X78944252Y-46921476D01*
X78894146Y-46970170D01*
X78836280Y-46984500D01*
X66553478Y-46984500D01*
X66486439Y-46964815D01*
X66465797Y-46948181D01*
X66053360Y-46535744D01*
X66019875Y-46474421D01*
X66023110Y-46409745D01*
X66037246Y-46366243D01*
X66070500Y-46156287D01*
X66070500Y-45943713D01*
X66037246Y-45733757D01*
X65971557Y-45531588D01*
X65875051Y-45342184D01*
X65875049Y-45342181D01*
X65875048Y-45342179D01*
X65750109Y-45170213D01*
X65599786Y-45019890D01*
X65427820Y-44894951D01*
X65427115Y-44894591D01*
X65419054Y-44890485D01*
X65368259Y-44842512D01*
X65351463Y-44774692D01*
X65373999Y-44708556D01*
X65419054Y-44669515D01*
X65427816Y-44665051D01*
X65488995Y-44620602D01*
X65599786Y-44540109D01*
X65599788Y-44540106D01*
X65599792Y-44540104D01*
X65750104Y-44389792D01*
X65750106Y-44389788D01*
X65750109Y-44389786D01*
X65875048Y-44217820D01*
X65875050Y-44217817D01*
X65875051Y-44217816D01*
X65971557Y-44028412D01*
X66037246Y-43826243D01*
X66070500Y-43616287D01*
X66070500Y-43403713D01*
X66037246Y-43193757D01*
X65971557Y-42991588D01*
X65875051Y-42802184D01*
X65875049Y-42802181D01*
X65875048Y-42802179D01*
X65750109Y-42630213D01*
X65599786Y-42479890D01*
X65427820Y-42354951D01*
X65427115Y-42354591D01*
X65419054Y-42350485D01*
X65368259Y-42302512D01*
X65351463Y-42234692D01*
X65373999Y-42168556D01*
X65419054Y-42129515D01*
X65427816Y-42125051D01*
X65449789Y-42109086D01*
X65599786Y-42000109D01*
X65599788Y-42000106D01*
X65599792Y-42000104D01*
X65750104Y-41849792D01*
X65750106Y-41849788D01*
X65750109Y-41849786D01*
X65875048Y-41677820D01*
X65875050Y-41677817D01*
X65875051Y-41677816D01*
X65971557Y-41488412D01*
X66037246Y-41286243D01*
X66070500Y-41076287D01*
X66070500Y-40863713D01*
X66037246Y-40653757D01*
X66023109Y-40610251D01*
X66021115Y-40540413D01*
X66053358Y-40484256D01*
X75993796Y-30543820D01*
X76055119Y-30510335D01*
X76081477Y-30507501D01*
X101345500Y-30507501D01*
X101412539Y-30527186D01*
G37*
%TD.AperFunction*%
%TA.AperFunction,Conductor*%
G36*
X157642539Y-28040185D02*
G01*
X157688294Y-28092989D01*
X157699500Y-28144500D01*
X157699500Y-68225500D01*
X157679815Y-68292539D01*
X157627011Y-68338294D01*
X157575500Y-68349500D01*
X60414500Y-68349500D01*
X60347461Y-68329815D01*
X60301706Y-68277011D01*
X60290500Y-68225500D01*
X60290500Y-35783713D01*
X61469500Y-35783713D01*
X61469500Y-35996287D01*
X61476315Y-36039315D01*
X61497109Y-36170606D01*
X61502754Y-36206243D01*
X61555868Y-36369711D01*
X61568444Y-36408414D01*
X61664951Y-36597820D01*
X61789890Y-36769786D01*
X61940213Y-36920109D01*
X62112182Y-37045050D01*
X62120946Y-37049516D01*
X62171742Y-37097491D01*
X62188536Y-37165312D01*
X62165998Y-37231447D01*
X62120946Y-37270484D01*
X62112182Y-37274949D01*
X61940213Y-37399890D01*
X61789890Y-37550213D01*
X61664951Y-37722179D01*
X61568444Y-37911585D01*
X61502753Y-38113760D01*
X61474340Y-38293153D01*
X61469500Y-38323713D01*
X61469500Y-38536287D01*
X61473563Y-38561941D01*
X61494429Y-38693685D01*
X61502754Y-38746243D01*
X61532633Y-38838202D01*
X61568444Y-38948414D01*
X61664951Y-39137820D01*
X61789890Y-39309786D01*
X61940213Y-39460109D01*
X62112182Y-39585050D01*
X62120946Y-39589516D01*
X62171742Y-39637491D01*
X62188536Y-39705312D01*
X62165998Y-39771447D01*
X62120946Y-39810484D01*
X62112182Y-39814949D01*
X61940213Y-39939890D01*
X61789890Y-40090213D01*
X61664951Y-40262179D01*
X61568444Y-40451585D01*
X61502753Y-40653760D01*
X61483247Y-40776918D01*
X61469500Y-40863713D01*
X61469500Y-41076287D01*
X61502754Y-41286243D01*
X61565498Y-41479349D01*
X61568444Y-41488414D01*
X61664951Y-41677820D01*
X61789890Y-41849786D01*
X61940213Y-42000109D01*
X62112182Y-42125050D01*
X62120946Y-42129516D01*
X62171742Y-42177491D01*
X62188536Y-42245312D01*
X62165998Y-42311447D01*
X62120946Y-42350484D01*
X62112182Y-42354949D01*
X61940213Y-42479890D01*
X61789890Y-42630213D01*
X61664951Y-42802179D01*
X61568444Y-42991585D01*
X61502753Y-43193760D01*
X61469500Y-43403713D01*
X61469500Y-43616287D01*
X61502754Y-43826243D01*
X61546641Y-43961313D01*
X61568443Y-44028412D01*
X61664951Y-44217820D01*
X61789890Y-44389786D01*
X61940213Y-44540109D01*
X62112182Y-44665050D01*
X62120946Y-44669516D01*
X62171742Y-44717491D01*
X62188536Y-44785312D01*
X62165998Y-44851447D01*
X62120946Y-44890484D01*
X62112182Y-44894949D01*
X61940213Y-45019890D01*
X61789890Y-45170213D01*
X61664951Y-45342179D01*
X61568444Y-45531585D01*
X61502753Y-45733760D01*
X61498501Y-45760609D01*
X61469500Y-45943713D01*
X61469500Y-46156287D01*
X61474966Y-46190797D01*
X61502753Y-46366239D01*
X61502753Y-46366241D01*
X61502754Y-46366243D01*
X61557828Y-46535744D01*
X61568444Y-46568414D01*
X61664951Y-46757820D01*
X61789890Y-46929786D01*
X61940213Y-47080109D01*
X62112182Y-47205050D01*
X62120946Y-47209516D01*
X62171742Y-47257491D01*
X62188536Y-47325312D01*
X62165998Y-47391447D01*
X62120946Y-47430484D01*
X62112182Y-47434949D01*
X61940213Y-47559890D01*
X61789890Y-47710213D01*
X61664951Y-47882179D01*
X61568444Y-48071585D01*
X61502753Y-48273760D01*
X61469500Y-48483713D01*
X61469500Y-48696286D01*
X61502753Y-48906239D01*
X61502753Y-48906241D01*
X61502754Y-48906243D01*
X61562729Y-49090827D01*
X61568444Y-49108414D01*
X61664951Y-49297820D01*
X61789890Y-49469786D01*
X61940213Y-49620109D01*
X62112179Y-49745048D01*
X62112181Y-49745049D01*
X62112184Y-49745051D01*
X62301588Y-49841557D01*
X62503757Y-49907246D01*
X62713713Y-49940500D01*
X62713714Y-49940500D01*
X64826286Y-49940500D01*
X64826287Y-49940500D01*
X65036243Y-49907246D01*
X65155223Y-49868585D01*
X65225061Y-49866590D01*
X65281220Y-49898836D01*
X74793284Y-59410900D01*
X74826769Y-59472223D01*
X74821785Y-59541915D01*
X74779913Y-59597848D01*
X74714449Y-59622265D01*
X74673511Y-59618356D01*
X74550666Y-59585440D01*
X74550660Y-59585439D01*
X74550655Y-59585438D01*
X74277684Y-59549501D01*
X74277679Y-59549500D01*
X74277674Y-59549500D01*
X74002326Y-59549500D01*
X74002320Y-59549500D01*
X74002315Y-59549501D01*
X73729344Y-59585438D01*
X73729337Y-59585439D01*
X73729334Y-59585440D01*
X73673125Y-59600500D01*
X73463369Y-59656704D01*
X73208982Y-59762075D01*
X73208971Y-59762080D01*
X72970516Y-59899754D01*
X72752073Y-60067370D01*
X72752066Y-60067376D01*
X72557376Y-60262066D01*
X72557370Y-60262073D01*
X72389754Y-60480516D01*
X72252080Y-60718971D01*
X72252075Y-60718982D01*
X72146704Y-60973369D01*
X72075441Y-61239331D01*
X72075438Y-61239344D01*
X72039501Y-61512315D01*
X72039500Y-61512332D01*
X72039500Y-61787667D01*
X72039501Y-61787684D01*
X72075438Y-62060655D01*
X72075439Y-62060660D01*
X72075440Y-62060666D01*
X72092830Y-62125565D01*
X72146704Y-62326630D01*
X72252075Y-62581017D01*
X72252080Y-62581028D01*
X72334861Y-62724407D01*
X72389751Y-62819479D01*
X72389753Y-62819482D01*
X72389754Y-62819483D01*
X72557370Y-63037926D01*
X72557376Y-63037933D01*
X72752066Y-63232623D01*
X72752072Y-63232628D01*
X72970521Y-63400249D01*
X73123778Y-63488732D01*
X73208971Y-63537919D01*
X73208976Y-63537921D01*
X73208979Y-63537923D01*
X73463368Y-63643295D01*
X73729334Y-63714560D01*
X74002326Y-63750500D01*
X74002333Y-63750500D01*
X74277667Y-63750500D01*
X74277674Y-63750500D01*
X74550666Y-63714560D01*
X74816632Y-63643295D01*
X75022928Y-63557844D01*
X84350000Y-63557844D01*
X84356401Y-63617372D01*
X84356403Y-63617379D01*
X84406645Y-63752086D01*
X84406649Y-63752093D01*
X84492809Y-63867187D01*
X84492812Y-63867190D01*
X84607906Y-63953350D01*
X84607913Y-63953354D01*
X84742620Y-64003596D01*
X84742627Y-64003598D01*
X84802155Y-64009999D01*
X84802172Y-64010000D01*
X85500000Y-64010000D01*
X85500000Y-63350000D01*
X84350000Y-63350000D01*
X84350000Y-63557844D01*
X75022928Y-63557844D01*
X75071021Y-63537923D01*
X75309479Y-63400249D01*
X75527928Y-63232628D01*
X75536556Y-63224000D01*
X75549600Y-63210957D01*
X75722623Y-63037933D01*
X75722628Y-63037928D01*
X75890249Y-62819479D01*
X76027923Y-62581021D01*
X76133295Y-62326632D01*
X76204560Y-62060666D01*
X76240500Y-61787674D01*
X76240500Y-61512326D01*
X76204560Y-61239334D01*
X76171643Y-61116485D01*
X76173306Y-61046640D01*
X76212468Y-60988777D01*
X76276697Y-60961273D01*
X76345599Y-60972859D01*
X76379099Y-60996715D01*
X77324346Y-61941962D01*
X77324356Y-61941973D01*
X77328686Y-61946303D01*
X77328687Y-61946304D01*
X77433696Y-62051313D01*
X77515229Y-62098386D01*
X77562303Y-62125565D01*
X77705747Y-62164000D01*
X77705748Y-62164000D01*
X84287163Y-62164000D01*
X84354202Y-62183685D01*
X84393400Y-62224049D01*
X84399329Y-62233899D01*
X84406204Y-62252331D01*
X84427750Y-62281113D01*
X84430972Y-62286465D01*
X84438306Y-62314454D01*
X84448419Y-62341567D01*
X84447054Y-62347840D01*
X84448682Y-62354053D01*
X84439717Y-62381569D01*
X84433568Y-62409841D01*
X84427359Y-62419502D01*
X84427039Y-62420487D01*
X84426382Y-62421022D01*
X84424003Y-62424726D01*
X84406646Y-62447911D01*
X84406645Y-62447913D01*
X84356403Y-62582620D01*
X84356401Y-62582627D01*
X84350000Y-62642155D01*
X84350000Y-62850000D01*
X85626000Y-62850000D01*
X85693039Y-62869685D01*
X85738794Y-62922489D01*
X85750000Y-62974000D01*
X85750000Y-63100000D01*
X85876000Y-63100000D01*
X85943039Y-63119685D01*
X85988794Y-63172489D01*
X86000000Y-63224000D01*
X86000000Y-64010000D01*
X86092857Y-64010000D01*
X86159896Y-64029685D01*
X86200243Y-64071999D01*
X86249500Y-64157314D01*
X86342686Y-64250500D01*
X86456814Y-64316392D01*
X86584108Y-64350500D01*
X86584110Y-64350500D01*
X90115890Y-64350500D01*
X90115892Y-64350500D01*
X90243186Y-64316392D01*
X90357314Y-64250500D01*
X90450500Y-64157314D01*
X90499468Y-64072498D01*
X90550035Y-64024283D01*
X90606855Y-64010499D01*
X91897871Y-64010499D01*
X91897872Y-64010499D01*
X91957483Y-64004091D01*
X92092331Y-63953796D01*
X92207546Y-63867546D01*
X92293796Y-63752331D01*
X92296655Y-63744666D01*
X92338527Y-63688733D01*
X92403991Y-63664316D01*
X92412837Y-63664000D01*
X135112575Y-63664000D01*
X135112577Y-63664000D01*
X135256020Y-63625565D01*
X135270018Y-63617483D01*
X135384628Y-63551313D01*
X135489637Y-63446304D01*
X135489637Y-63446302D01*
X135499841Y-63436099D01*
X135499845Y-63436094D01*
X139603607Y-59332332D01*
X144369500Y-59332332D01*
X144369500Y-59607667D01*
X144369501Y-59607684D01*
X144405438Y-59880655D01*
X144405439Y-59880660D01*
X144405440Y-59880666D01*
X144432218Y-59980602D01*
X144476704Y-60146630D01*
X144582075Y-60401017D01*
X144582080Y-60401028D01*
X144627976Y-60480521D01*
X144719751Y-60639479D01*
X144719753Y-60639482D01*
X144719754Y-60639483D01*
X144887370Y-60857926D01*
X144887376Y-60857933D01*
X145082066Y-61052623D01*
X145082072Y-61052628D01*
X145300521Y-61220249D01*
X145453778Y-61308732D01*
X145538971Y-61357919D01*
X145538976Y-61357921D01*
X145538979Y-61357923D01*
X145793368Y-61463295D01*
X146059334Y-61534560D01*
X146332326Y-61570500D01*
X146332333Y-61570500D01*
X146607667Y-61570500D01*
X146607674Y-61570500D01*
X146880666Y-61534560D01*
X147146632Y-61463295D01*
X147401021Y-61357923D01*
X147639479Y-61220249D01*
X147857928Y-61052628D01*
X148052628Y-60857928D01*
X148220249Y-60639479D01*
X148357923Y-60401021D01*
X148463295Y-60146632D01*
X148534560Y-59880666D01*
X148570500Y-59607674D01*
X148570500Y-59332326D01*
X148534560Y-59059334D01*
X148463295Y-58793368D01*
X148357923Y-58538979D01*
X148357921Y-58538976D01*
X148357919Y-58538971D01*
X148308732Y-58453778D01*
X148220249Y-58300521D01*
X148052628Y-58082072D01*
X148052623Y-58082066D01*
X147857933Y-57887376D01*
X147857926Y-57887370D01*
X147639483Y-57719754D01*
X147639482Y-57719753D01*
X147639479Y-57719751D01*
X147544407Y-57664861D01*
X147401028Y-57582080D01*
X147401017Y-57582075D01*
X147146630Y-57476704D01*
X147013649Y-57441072D01*
X146880666Y-57405440D01*
X146880660Y-57405439D01*
X146880655Y-57405438D01*
X146607684Y-57369501D01*
X146607679Y-57369500D01*
X146607674Y-57369500D01*
X146332326Y-57369500D01*
X146332320Y-57369500D01*
X146332315Y-57369501D01*
X146059344Y-57405438D01*
X146059337Y-57405439D01*
X146059334Y-57405440D01*
X146003125Y-57420500D01*
X145793369Y-57476704D01*
X145538982Y-57582075D01*
X145538971Y-57582080D01*
X145300516Y-57719754D01*
X145082073Y-57887370D01*
X145082066Y-57887376D01*
X144887376Y-58082066D01*
X144887370Y-58082073D01*
X144719754Y-58300516D01*
X144582080Y-58538971D01*
X144582075Y-58538982D01*
X144476704Y-58793369D01*
X144450147Y-58892484D01*
X144409839Y-59042919D01*
X144405441Y-59059331D01*
X144405438Y-59059344D01*
X144369501Y-59332315D01*
X144369500Y-59332332D01*
X139603607Y-59332332D01*
X142336301Y-56599638D01*
X142336304Y-56599637D01*
X142441313Y-56494628D01*
X142460702Y-56461043D01*
X142469582Y-56451243D01*
X142488556Y-56439633D01*
X142504654Y-56424284D01*
X142519551Y-56420669D01*
X142529181Y-56414778D01*
X142542612Y-56415075D01*
X142561476Y-56410499D01*
X142937871Y-56410499D01*
X142937872Y-56410499D01*
X142997483Y-56404091D01*
X143132331Y-56353796D01*
X143247546Y-56267546D01*
X143333796Y-56152331D01*
X143384091Y-56017483D01*
X143390500Y-55957873D01*
X143390499Y-55042128D01*
X143384091Y-54982517D01*
X143380914Y-54974000D01*
X143333797Y-54847672D01*
X143333796Y-54847669D01*
X143315995Y-54823891D01*
X143291580Y-54758430D01*
X143306431Y-54690157D01*
X143315999Y-54675270D01*
X143333351Y-54652091D01*
X143383597Y-54517376D01*
X143383598Y-54517372D01*
X143389999Y-54457844D01*
X143390000Y-54457827D01*
X143390000Y-54250000D01*
X142114000Y-54250000D01*
X142046961Y-54230315D01*
X142001206Y-54177511D01*
X141990000Y-54126000D01*
X141990000Y-54000000D01*
X141864000Y-54000000D01*
X141796961Y-53980315D01*
X141751206Y-53927511D01*
X141740000Y-53876000D01*
X141740000Y-53750000D01*
X142240000Y-53750000D01*
X143390000Y-53750000D01*
X143390000Y-53542172D01*
X143389999Y-53542155D01*
X143383598Y-53482627D01*
X143383596Y-53482620D01*
X143333354Y-53347913D01*
X143333350Y-53347906D01*
X143247190Y-53232812D01*
X143247187Y-53232809D01*
X143132093Y-53146649D01*
X143132086Y-53146645D01*
X142997379Y-53096403D01*
X142997372Y-53096401D01*
X142937844Y-53090000D01*
X142240000Y-53090000D01*
X142240000Y-53750000D01*
X141740000Y-53750000D01*
X141740000Y-53127874D01*
X141607759Y-53083579D01*
X141595012Y-53074692D01*
X141580104Y-53070315D01*
X141562994Y-53052371D01*
X141550443Y-53043621D01*
X141547241Y-53035850D01*
X141539756Y-53028000D01*
X141520689Y-52994975D01*
X141490500Y-52942686D01*
X141397314Y-52849500D01*
X141378071Y-52838390D01*
X141290521Y-52787841D01*
X141242306Y-52737274D01*
X141229084Y-52668667D01*
X141255052Y-52603802D01*
X141264833Y-52592782D01*
X143827477Y-50030137D01*
X143888798Y-49996654D01*
X143953471Y-49999888D01*
X144079956Y-50040986D01*
X144118631Y-50053553D01*
X144351903Y-50090500D01*
X144351908Y-50090500D01*
X144588097Y-50090500D01*
X144821368Y-50053553D01*
X144822870Y-50053065D01*
X145045992Y-49980568D01*
X145256433Y-49873343D01*
X145447510Y-49734517D01*
X145614517Y-49567510D01*
X145753343Y-49376433D01*
X145860568Y-49165992D01*
X145933553Y-48941368D01*
X145948405Y-48847598D01*
X145970500Y-48708097D01*
X145970500Y-48471902D01*
X145933553Y-48238631D01*
X145892570Y-48112499D01*
X145860568Y-48014008D01*
X145860566Y-48014005D01*
X145860566Y-48014003D01*
X145753342Y-47803566D01*
X145614517Y-47612490D01*
X145447510Y-47445483D01*
X145256433Y-47306657D01*
X145246424Y-47301557D01*
X145045996Y-47199433D01*
X144821368Y-47126446D01*
X144588097Y-47089500D01*
X144588092Y-47089500D01*
X144351908Y-47089500D01*
X144351903Y-47089500D01*
X144118631Y-47126446D01*
X143894003Y-47199433D01*
X143683566Y-47306657D01*
X143600047Y-47367338D01*
X143492490Y-47445483D01*
X143492488Y-47445485D01*
X143492487Y-47445485D01*
X143325482Y-47612490D01*
X143284615Y-47668739D01*
X143229285Y-47711404D01*
X143197455Y-47716096D01*
X142452962Y-48460589D01*
X142435925Y-48397007D01*
X142370099Y-48282993D01*
X142277007Y-48189901D01*
X142162993Y-48124075D01*
X142099408Y-48107037D01*
X142839105Y-47367340D01*
X142839104Y-47367338D01*
X142756174Y-47307087D01*
X142545802Y-47199897D01*
X142321247Y-47126934D01*
X142321248Y-47126934D01*
X142088052Y-47090000D01*
X141851948Y-47090000D01*
X141618752Y-47126934D01*
X141394197Y-47199897D01*
X141183824Y-47307087D01*
X141088141Y-47376605D01*
X141022334Y-47400085D01*
X140954281Y-47384259D01*
X140915990Y-47350599D01*
X140856027Y-47270500D01*
X140827546Y-47232454D01*
X140827544Y-47232453D01*
X140827544Y-47232452D01*
X140712335Y-47146206D01*
X140712328Y-47146202D01*
X140577482Y-47095908D01*
X140577483Y-47095908D01*
X140517883Y-47089501D01*
X140517881Y-47089500D01*
X140517873Y-47089500D01*
X140517864Y-47089500D01*
X138422129Y-47089500D01*
X138422123Y-47089501D01*
X138362516Y-47095908D01*
X138227671Y-47146202D01*
X138227664Y-47146206D01*
X138112455Y-47232452D01*
X138112452Y-47232455D01*
X138026206Y-47347664D01*
X138026202Y-47347671D01*
X137975908Y-47482517D01*
X137969501Y-47542116D01*
X137969500Y-47542135D01*
X137969500Y-49637870D01*
X137969501Y-49637876D01*
X137975908Y-49697483D01*
X138026202Y-49832328D01*
X138026206Y-49832335D01*
X138112452Y-49947544D01*
X138112455Y-49947547D01*
X138227664Y-50033793D01*
X138227671Y-50033797D01*
X138362517Y-50084091D01*
X138362516Y-50084091D01*
X138369444Y-50084835D01*
X138422127Y-50090500D01*
X140517872Y-50090499D01*
X140577483Y-50084091D01*
X140712331Y-50033796D01*
X140827546Y-49947546D01*
X140913796Y-49832331D01*
X140913796Y-49832329D01*
X140915989Y-49829401D01*
X140971923Y-49787530D01*
X141041615Y-49782546D01*
X141088142Y-49803394D01*
X141183828Y-49872914D01*
X141394197Y-49980102D01*
X141618752Y-50053065D01*
X141618751Y-50053065D01*
X141851948Y-50090000D01*
X141873020Y-50090000D01*
X141940059Y-50109685D01*
X141985814Y-50162489D01*
X141995758Y-50231647D01*
X141966733Y-50295203D01*
X141960701Y-50301681D01*
X140402044Y-51860340D01*
X140340721Y-51893825D01*
X140314363Y-51896659D01*
X130026550Y-51896659D01*
X129959511Y-51876974D01*
X129913756Y-51824170D01*
X129902550Y-51772659D01*
X129902550Y-51769148D01*
X129861613Y-51510684D01*
X129787299Y-51281971D01*
X129780746Y-51261802D01*
X129780744Y-51261799D01*
X129780744Y-51261797D01*
X129737641Y-51177205D01*
X129661940Y-51028634D01*
X129587728Y-50926489D01*
X129508127Y-50816927D01*
X129508123Y-50816922D01*
X129323077Y-50631876D01*
X129323072Y-50631872D01*
X129111369Y-50478062D01*
X129111368Y-50478061D01*
X129111366Y-50478060D01*
X128918204Y-50379638D01*
X128867409Y-50331664D01*
X128850500Y-50269154D01*
X128850500Y-39442135D01*
X134869500Y-39442135D01*
X134869500Y-42737870D01*
X134869501Y-42737876D01*
X134875908Y-42797483D01*
X134926202Y-42932328D01*
X134926206Y-42932335D01*
X135012452Y-43047544D01*
X135012455Y-43047547D01*
X135127664Y-43133793D01*
X135127671Y-43133797D01*
X135262517Y-43184091D01*
X135262516Y-43184091D01*
X135269444Y-43184835D01*
X135322127Y-43190500D01*
X137417872Y-43190499D01*
X137477483Y-43184091D01*
X137612331Y-43133796D01*
X137727546Y-43047546D01*
X137813796Y-42932331D01*
X137864091Y-42797483D01*
X137870500Y-42737873D01*
X137870499Y-39442135D01*
X146069500Y-39442135D01*
X146069500Y-42737870D01*
X146069501Y-42737876D01*
X146075908Y-42797483D01*
X146126202Y-42932328D01*
X146126206Y-42932335D01*
X146212452Y-43047544D01*
X146212455Y-43047547D01*
X146327664Y-43133793D01*
X146327671Y-43133797D01*
X146462517Y-43184091D01*
X146462516Y-43184091D01*
X146469444Y-43184835D01*
X146522127Y-43190500D01*
X148617872Y-43190499D01*
X148677483Y-43184091D01*
X148812331Y-43133796D01*
X148927546Y-43047546D01*
X149013796Y-42932331D01*
X149064091Y-42797483D01*
X149070500Y-42737873D01*
X149070499Y-39442128D01*
X149064091Y-39382517D01*
X149036966Y-39309792D01*
X149013797Y-39247671D01*
X149013793Y-39247664D01*
X148927547Y-39132455D01*
X148927544Y-39132452D01*
X148812335Y-39046206D01*
X148812328Y-39046202D01*
X148677482Y-38995908D01*
X148677483Y-38995908D01*
X148617883Y-38989501D01*
X148617881Y-38989500D01*
X148617873Y-38989500D01*
X148617864Y-38989500D01*
X146522129Y-38989500D01*
X146522123Y-38989501D01*
X146462516Y-38995908D01*
X146327671Y-39046202D01*
X146327664Y-39046206D01*
X146212455Y-39132452D01*
X146212452Y-39132455D01*
X146126206Y-39247664D01*
X146126202Y-39247671D01*
X146075908Y-39382517D01*
X146069501Y-39442116D01*
X146069501Y-39442123D01*
X146069500Y-39442135D01*
X137870499Y-39442135D01*
X137870499Y-39442128D01*
X137864091Y-39382517D01*
X137836966Y-39309792D01*
X137813797Y-39247671D01*
X137813793Y-39247664D01*
X137727547Y-39132455D01*
X137727544Y-39132452D01*
X137612335Y-39046206D01*
X137612328Y-39046202D01*
X137477482Y-38995908D01*
X137477483Y-38995908D01*
X137417883Y-38989501D01*
X137417881Y-38989500D01*
X137417873Y-38989500D01*
X137417864Y-38989500D01*
X135322129Y-38989500D01*
X135322123Y-38989501D01*
X135262516Y-38995908D01*
X135127671Y-39046202D01*
X135127664Y-39046206D01*
X135012455Y-39132452D01*
X135012452Y-39132455D01*
X134926206Y-39247664D01*
X134926202Y-39247671D01*
X134875908Y-39382517D01*
X134869501Y-39442116D01*
X134869501Y-39442123D01*
X134869500Y-39442135D01*
X128850500Y-39442135D01*
X128850500Y-37295941D01*
X128870185Y-37228902D01*
X128918203Y-37185457D01*
X129121366Y-37081940D01*
X129333079Y-36928122D01*
X129518122Y-36743079D01*
X129671940Y-36531366D01*
X129790746Y-36298198D01*
X129871613Y-36049315D01*
X129881135Y-35989197D01*
X129912550Y-35790851D01*
X129912550Y-35529148D01*
X129871613Y-35270684D01*
X129805597Y-35067510D01*
X129790746Y-35021802D01*
X129790744Y-35021799D01*
X129790744Y-35021797D01*
X129716676Y-34876433D01*
X129671940Y-34788634D01*
X129632936Y-34734949D01*
X129518127Y-34576927D01*
X129518123Y-34576922D01*
X129333077Y-34391876D01*
X129333072Y-34391872D01*
X129121369Y-34238062D01*
X129121368Y-34238061D01*
X129121366Y-34238060D01*
X129048553Y-34200959D01*
X128888202Y-34119255D01*
X128639315Y-34038386D01*
X128380851Y-33997450D01*
X128380846Y-33997450D01*
X128119154Y-33997450D01*
X128119149Y-33997450D01*
X127860683Y-34038387D01*
X127860680Y-34038387D01*
X127607169Y-34120759D01*
X127606630Y-34119101D01*
X127594245Y-34120427D01*
X127575543Y-34127403D01*
X127560217Y-34124069D01*
X127544622Y-34125738D01*
X127526776Y-34116794D01*
X127507270Y-34112551D01*
X127484911Y-34095813D01*
X127482157Y-34094433D01*
X127479016Y-34091400D01*
X127344833Y-33957217D01*
X127344831Y-33957214D01*
X127232756Y-33845139D01*
X127232754Y-33845137D01*
X127104146Y-33770885D01*
X126960703Y-33732450D01*
X126960702Y-33732450D01*
X111393593Y-33732450D01*
X111245088Y-33732450D01*
X111101645Y-33770885D01*
X111101644Y-33770885D01*
X111030010Y-33812243D01*
X110962110Y-33828715D01*
X110896083Y-33805862D01*
X110852893Y-33750940D01*
X110846252Y-33681387D01*
X110860621Y-33642860D01*
X110915565Y-33547696D01*
X110954000Y-33404252D01*
X110954000Y-32438199D01*
X110973685Y-32371160D01*
X111021706Y-32327714D01*
X111037050Y-32319896D01*
X111071610Y-32302287D01*
X111136393Y-32255220D01*
X111237213Y-32181971D01*
X111237215Y-32181968D01*
X111237219Y-32181966D01*
X111381966Y-32037219D01*
X111381968Y-32037215D01*
X111381971Y-32037213D01*
X111467612Y-31919336D01*
X111502287Y-31871610D01*
X111595220Y-31689219D01*
X111658477Y-31494534D01*
X111690500Y-31292352D01*
X111690500Y-31087648D01*
X111661713Y-30905897D01*
X111670667Y-30836605D01*
X111715664Y-30783153D01*
X111782415Y-30762513D01*
X111784186Y-30762500D01*
X120515500Y-30762500D01*
X120582539Y-30782185D01*
X120628294Y-30834989D01*
X120639500Y-30886500D01*
X120639500Y-31650001D01*
X120639501Y-31650019D01*
X120650000Y-31752796D01*
X120650001Y-31752799D01*
X120689372Y-31871610D01*
X120705186Y-31919334D01*
X120797288Y-32068656D01*
X120921344Y-32192712D01*
X121070666Y-32284814D01*
X121237203Y-32339999D01*
X121339991Y-32350500D01*
X122540008Y-32350499D01*
X122642797Y-32339999D01*
X122809334Y-32284814D01*
X122958656Y-32192712D01*
X123082712Y-32068656D01*
X123174814Y-31919334D01*
X123229999Y-31752797D01*
X123240500Y-31650009D01*
X123240499Y-30631500D01*
X123260183Y-30564462D01*
X123312987Y-30518707D01*
X123364499Y-30507501D01*
X128198171Y-30507501D01*
X128265210Y-30527186D01*
X128310965Y-30579990D01*
X128320909Y-30649148D01*
X128316102Y-30669820D01*
X128291522Y-30745465D01*
X128259500Y-30947648D01*
X128259500Y-31152351D01*
X128291522Y-31354534D01*
X128354781Y-31549223D01*
X128447715Y-31731613D01*
X128568028Y-31897213D01*
X128712786Y-32041971D01*
X128851089Y-32142452D01*
X128878390Y-32162287D01*
X128994607Y-32221503D01*
X129060776Y-32255218D01*
X129060778Y-32255218D01*
X129060781Y-32255220D01*
X129151856Y-32284812D01*
X129255465Y-32318477D01*
X129313785Y-32327714D01*
X129457648Y-32350500D01*
X129457649Y-32350500D01*
X129662351Y-32350500D01*
X129662352Y-32350500D01*
X129864534Y-32318477D01*
X130059219Y-32255220D01*
X130241610Y-32162287D01*
X130370482Y-32068657D01*
X130407213Y-32041971D01*
X130407215Y-32041968D01*
X130407219Y-32041966D01*
X130551966Y-31897219D01*
X130551968Y-31897215D01*
X130551971Y-31897213D01*
X130629858Y-31790009D01*
X130672287Y-31731610D01*
X130697715Y-31681705D01*
X130745690Y-31630909D01*
X130808200Y-31614000D01*
X136145022Y-31614000D01*
X136212061Y-31633685D01*
X136232703Y-31650319D01*
X138029859Y-33447475D01*
X138063344Y-33508798D01*
X138060109Y-33573474D01*
X138006447Y-33738627D01*
X138006447Y-33738630D01*
X137969500Y-33971902D01*
X137969500Y-34208097D01*
X138006446Y-34441368D01*
X138079433Y-34665996D01*
X138181921Y-34867139D01*
X138186657Y-34876433D01*
X138325483Y-35067510D01*
X138492490Y-35234517D01*
X138683567Y-35373343D01*
X138782991Y-35424002D01*
X138894003Y-35480566D01*
X138894005Y-35480566D01*
X138894008Y-35480568D01*
X139012745Y-35519148D01*
X139118631Y-35553553D01*
X139351903Y-35590500D01*
X139351908Y-35590500D01*
X139588097Y-35590500D01*
X139821368Y-35553553D01*
X140045992Y-35480568D01*
X140256433Y-35373343D01*
X140447510Y-35234517D01*
X140614517Y-35067510D01*
X140753343Y-34876433D01*
X140860568Y-34665992D01*
X140933553Y-34441368D01*
X140934987Y-34432315D01*
X140970500Y-34208097D01*
X140970500Y-33971902D01*
X140933553Y-33738631D01*
X140871514Y-33547696D01*
X140860568Y-33514008D01*
X140860566Y-33514005D01*
X140860566Y-33514003D01*
X140804002Y-33402991D01*
X140753343Y-33303567D01*
X140614517Y-33112490D01*
X140447510Y-32945483D01*
X140256433Y-32806657D01*
X140045996Y-32699433D01*
X139821368Y-32626446D01*
X139588097Y-32589500D01*
X139588092Y-32589500D01*
X139351908Y-32589500D01*
X139351903Y-32589500D01*
X139118630Y-32626447D01*
X139118627Y-32626447D01*
X138953474Y-32680109D01*
X138883633Y-32682104D01*
X138827475Y-32649859D01*
X136896798Y-30719182D01*
X136863313Y-30657859D01*
X136868297Y-30588167D01*
X136910169Y-30532234D01*
X136975633Y-30507817D01*
X136984479Y-30507501D01*
X140038523Y-30507501D01*
X140105562Y-30527186D01*
X140126204Y-30543820D01*
X143029859Y-33447475D01*
X143063344Y-33508798D01*
X143060109Y-33573474D01*
X143006447Y-33738627D01*
X143006447Y-33738630D01*
X142969500Y-33971902D01*
X142969500Y-34208097D01*
X143006446Y-34441368D01*
X143079433Y-34665996D01*
X143181921Y-34867139D01*
X143186657Y-34876433D01*
X143325483Y-35067510D01*
X143492490Y-35234517D01*
X143683567Y-35373343D01*
X143782991Y-35424002D01*
X143894003Y-35480566D01*
X143894005Y-35480566D01*
X143894008Y-35480568D01*
X144012745Y-35519148D01*
X144118631Y-35553553D01*
X144351903Y-35590500D01*
X144351908Y-35590500D01*
X144588097Y-35590500D01*
X144821368Y-35553553D01*
X145045992Y-35480568D01*
X145256433Y-35373343D01*
X145447510Y-35234517D01*
X145614517Y-35067510D01*
X145753343Y-34876433D01*
X145860568Y-34665992D01*
X145933553Y-34441368D01*
X145934987Y-34432315D01*
X145970500Y-34208097D01*
X145970500Y-33971902D01*
X145933553Y-33738631D01*
X145871514Y-33547696D01*
X145860568Y-33514008D01*
X145860566Y-33514005D01*
X145860566Y-33514003D01*
X145804002Y-33402991D01*
X145753343Y-33303567D01*
X145614517Y-33112490D01*
X145447510Y-32945483D01*
X145256433Y-32806657D01*
X145045996Y-32699433D01*
X144821368Y-32626446D01*
X144588097Y-32589500D01*
X144588092Y-32589500D01*
X144351908Y-32589500D01*
X144351903Y-32589500D01*
X144118630Y-32626447D01*
X144118627Y-32626447D01*
X143953474Y-32680109D01*
X143883633Y-32682104D01*
X143827475Y-32649859D01*
X140781884Y-29604268D01*
X140781882Y-29604265D01*
X140669807Y-29492190D01*
X140669805Y-29492188D01*
X140541197Y-29417936D01*
X140397754Y-29379501D01*
X140397753Y-29379501D01*
X75870751Y-29379501D01*
X75722246Y-29379501D01*
X75578802Y-29417936D01*
X75578799Y-29417937D01*
X75531728Y-29445113D01*
X75531728Y-29445114D01*
X75450198Y-29492186D01*
X75450195Y-29492188D01*
X75450192Y-29492190D01*
X75345184Y-29597199D01*
X66277198Y-38665184D01*
X66215875Y-38698669D01*
X66146183Y-38693685D01*
X66090250Y-38651813D01*
X66065833Y-38586349D01*
X66067043Y-38558108D01*
X66070500Y-38536287D01*
X66070500Y-38323713D01*
X66037246Y-38113757D01*
X65971557Y-37911588D01*
X65875051Y-37722184D01*
X65875049Y-37722181D01*
X65875048Y-37722179D01*
X65750109Y-37550213D01*
X65599786Y-37399890D01*
X65427820Y-37274951D01*
X65427115Y-37274591D01*
X65419054Y-37270485D01*
X65368259Y-37222512D01*
X65351463Y-37154692D01*
X65373999Y-37088556D01*
X65419054Y-37049515D01*
X65427816Y-37045051D01*
X65449789Y-37029086D01*
X65599786Y-36920109D01*
X65599788Y-36920106D01*
X65599792Y-36920104D01*
X65750104Y-36769792D01*
X65750106Y-36769788D01*
X65750109Y-36769786D01*
X65875048Y-36597820D01*
X65875047Y-36597820D01*
X65875051Y-36597816D01*
X65971557Y-36408412D01*
X66037246Y-36206243D01*
X66070500Y-35996287D01*
X66070500Y-35783713D01*
X66037246Y-35573757D01*
X65971557Y-35371588D01*
X65875051Y-35182184D01*
X65875049Y-35182181D01*
X65875048Y-35182179D01*
X65750109Y-35010213D01*
X65622986Y-34883090D01*
X65589501Y-34821767D01*
X65594485Y-34752075D01*
X65636357Y-34696142D01*
X65667335Y-34679227D01*
X65702810Y-34665996D01*
X65762331Y-34643796D01*
X65877546Y-34557546D01*
X65963796Y-34442331D01*
X66014091Y-34307483D01*
X66020500Y-34247873D01*
X66020499Y-32452128D01*
X66014091Y-32392517D01*
X66006125Y-32371160D01*
X65963797Y-32257671D01*
X65963793Y-32257664D01*
X65877547Y-32142455D01*
X65877544Y-32142452D01*
X65762335Y-32056206D01*
X65762328Y-32056202D01*
X65627482Y-32005908D01*
X65627483Y-32005908D01*
X65567883Y-31999501D01*
X65567881Y-31999500D01*
X65567873Y-31999500D01*
X65567864Y-31999500D01*
X61972129Y-31999500D01*
X61972123Y-31999501D01*
X61912516Y-32005908D01*
X61777671Y-32056202D01*
X61777664Y-32056206D01*
X61662455Y-32142452D01*
X61662452Y-32142455D01*
X61576206Y-32257664D01*
X61576202Y-32257671D01*
X61525908Y-32392517D01*
X61520997Y-32438199D01*
X61519501Y-32452123D01*
X61519500Y-32452135D01*
X61519500Y-34247870D01*
X61519501Y-34247876D01*
X61525908Y-34307483D01*
X61576202Y-34442328D01*
X61576206Y-34442335D01*
X61662452Y-34557544D01*
X61662455Y-34557547D01*
X61777664Y-34643793D01*
X61777673Y-34643798D01*
X61872664Y-34679227D01*
X61928598Y-34721098D01*
X61953016Y-34786562D01*
X61938165Y-34854835D01*
X61917014Y-34883090D01*
X61789889Y-35010215D01*
X61664951Y-35182179D01*
X61568444Y-35371585D01*
X61502753Y-35573760D01*
X61501291Y-35582993D01*
X61469500Y-35783713D01*
X60290500Y-35783713D01*
X60290500Y-28144500D01*
X60310185Y-28077461D01*
X60362989Y-28031706D01*
X60414500Y-28020500D01*
X157575500Y-28020500D01*
X157642539Y-28040185D01*
G37*
%TD.AperFunction*%
%TD*%
M02*
